%TF.GenerationSoftware,KiCad,Pcbnew,10.0.5-10.0.5~ubuntu26.04.1*%
%TF.CreationDate,2026-08-20T20:57:50-07:00*%
%TF.ProjectId,skibidi-usb-mux,736b6962-6964-4692-9d75-73622d6d7578,rev?*%
%TF.SameCoordinates,Original*%
%TF.FileFunction,Copper,L2,Bot*%
%TF.FilePolarity,Positive*%
%FSLAX46Y46*%
G04 Gerber Fmt 4.6, Leading zero omitted, Abs format (unit mm)*
G04 Created by KiCad (PCBNEW 10.0.5-10.0.5~ubuntu26.04.1) date 2026-08-20 20:57:50*
%MOMM*%
%LPD*%
G01*
G04 APERTURE LIST*
%TA.AperFunction,HeatsinkPad*%
%ADD10C,0.500000*%
%TD*%
%TA.AperFunction,HeatsinkPad*%
%ADD11R,1.700000X1.700000*%
%TD*%
%TA.AperFunction,ComponentPad*%
%ADD12C,5.500000*%
%TD*%
%TA.AperFunction,ComponentPad*%
%ADD13C,1.520000*%
%TD*%
%TA.AperFunction,ComponentPad*%
%ADD14C,3.200000*%
%TD*%
%TA.AperFunction,ComponentPad*%
%ADD15C,0.700000*%
%TD*%
%TA.AperFunction,ComponentPad*%
%ADD16O,1.100000X2.000000*%
%TD*%
%TA.AperFunction,ComponentPad*%
%ADD17O,1.200000X1.800000*%
%TD*%
%TA.AperFunction,ComponentPad*%
%ADD18C,1.500000*%
%TD*%
%TA.AperFunction,ViaPad*%
%ADD19C,0.500000*%
%TD*%
%TA.AperFunction,Conductor*%
%ADD20C,0.500000*%
%TD*%
%TA.AperFunction,Conductor*%
%ADD21C,0.300000*%
%TD*%
G04 APERTURE END LIST*
D10*
%TO.P,U2,17,GND_17*%
%TO.N,GND*%
X139150000Y-109612500D03*
X139150000Y-110812500D03*
D11*
X139750000Y-110212500D03*
D10*
X140350000Y-109612500D03*
X140350000Y-110812500D03*
%TD*%
D12*
%TO.P,H3,1*%
%TO.N,N/C*%
X119000000Y-119000000D03*
%TD*%
D13*
%TO.P,J4,1,VBUS_1*%
%TO.N,VBUS*%
X146500000Y-125050000D03*
%TO.P,J4,2,D-_2*%
%TO.N,/2D-*%
X149000000Y-125050000D03*
%TO.P,J4,3,D+_3*%
%TO.N,/2D+*%
X151000000Y-125050000D03*
%TO.P,J4,4,GND_4*%
%TO.N,GND*%
X153500000Y-125050000D03*
D14*
%TO.P,J4,SH,Shield_SH*%
X143430000Y-127750000D03*
X156570000Y-127750000D03*
%TD*%
D15*
%TO.P,J3,*%
%TO.N,*%
X164610000Y-129700000D03*
X170390000Y-129700000D03*
D16*
%TO.P,J3,SH,SHIELD_SH*%
%TO.N,GND*%
X163180000Y-129170000D03*
D17*
X163180000Y-133380000D03*
D16*
X171820000Y-129170000D03*
D17*
X171820000Y-133380000D03*
%TD*%
D13*
%TO.P,J5,1,VBUS_1*%
%TO.N,VBUS*%
X126500000Y-125050000D03*
%TO.P,J5,2,D-_2*%
%TO.N,/3D-*%
X129000000Y-125050000D03*
%TO.P,J5,3,D+_3*%
%TO.N,/3D+*%
X131000000Y-125050000D03*
%TO.P,J5,4,GND_4*%
%TO.N,GND*%
X133500000Y-125050000D03*
D14*
%TO.P,J5,SH,Shield_SH*%
X123430000Y-127750000D03*
X136570000Y-127750000D03*
%TD*%
D12*
%TO.P,H1,1*%
%TO.N,N/C*%
X104000000Y-104000000D03*
%TD*%
D18*
%TO.P,SW1,1,1_1*%
%TO.N,GND*%
X159000000Y-107250000D03*
%TO.P,SW1,2,2_2*%
%TO.N,/SEL*%
X161000000Y-107250000D03*
%TO.P,SW1,3,3_3*%
%TO.N,VBUS*%
X163000000Y-107250000D03*
%TO.P,SW1,4,4_4*%
%TO.N,GND*%
X159000000Y-102750000D03*
%TO.P,SW1,5,5_5*%
%TO.N,/SEL*%
X161000000Y-102750000D03*
%TO.P,SW1,6,6_6*%
%TO.N,VBUS*%
X163000000Y-102750000D03*
%TD*%
D15*
%TO.P,J2,*%
%TO.N,*%
X132490000Y-104782500D03*
X126710000Y-104782500D03*
D16*
%TO.P,J2,SH,SHIELD_SH*%
%TO.N,GND*%
X133920000Y-105312500D03*
D17*
X133920000Y-101102500D03*
D16*
X125280000Y-105312500D03*
D17*
X125280000Y-101102500D03*
%TD*%
D15*
%TO.P,J1,*%
%TO.N,*%
X115890000Y-104782500D03*
X110110000Y-104782500D03*
D16*
%TO.P,J1,SH,SHIELD_SH*%
%TO.N,GND*%
X117320000Y-105312500D03*
D17*
X117320000Y-101102500D03*
D16*
X108680000Y-105312500D03*
D17*
X108680000Y-101102500D03*
%TD*%
D12*
%TO.P,H4,1*%
%TO.N,N/C*%
X156000000Y-119000000D03*
%TD*%
D13*
%TO.P,J6,1,VBUS_1*%
%TO.N,VBUS*%
X106500000Y-125050000D03*
%TO.P,J6,2,D-_2*%
%TO.N,/4D-*%
X109000000Y-125050000D03*
%TO.P,J6,3,D+_3*%
%TO.N,/4D+*%
X111000000Y-125050000D03*
%TO.P,J6,4,GND_4*%
%TO.N,GND*%
X113500000Y-125050000D03*
D14*
%TO.P,J6,SH,Shield_SH*%
X103430000Y-127750000D03*
X116570000Y-127750000D03*
%TD*%
D12*
%TO.P,H2,1*%
%TO.N,N/C*%
X171000000Y-104000000D03*
%TD*%
D19*
%TO.N,GND*%
X164600000Y-110500000D03*
%TO.N,VBUS*%
X106500000Y-123500000D03*
X121100000Y-111000000D03*
X146500000Y-123500000D03*
X126500000Y-123500000D03*
X168000000Y-119150000D03*
X137850000Y-107450000D03*
X150000000Y-118400000D03*
X104100000Y-109750000D03*
X130000000Y-118400000D03*
X141900000Y-103400000D03*
X171375000Y-124425000D03*
X110000000Y-118400000D03*
X164025000Y-124425000D03*
%TO.N,GND*%
X140000000Y-115000000D03*
X137500000Y-112500000D03*
X104100000Y-111500000D03*
X106500000Y-111700000D03*
X158200000Y-116100000D03*
X116800000Y-111000000D03*
X126400000Y-107000000D03*
X129000000Y-109500000D03*
X146500000Y-119000000D03*
X130500000Y-112500000D03*
X148800000Y-109100000D03*
X142000000Y-112500000D03*
X156600000Y-123400000D03*
X168000000Y-123450000D03*
X113500000Y-115000000D03*
X132800000Y-107000000D03*
X127000000Y-112500000D03*
X150000000Y-122750000D03*
X123000000Y-115000000D03*
X104100000Y-110700000D03*
X148800000Y-111100000D03*
X126500000Y-119000000D03*
X142000000Y-108000000D03*
X111200000Y-111500000D03*
X106500000Y-110700000D03*
X110000000Y-122750000D03*
X120500000Y-104500000D03*
X137600000Y-103400000D03*
X113500000Y-111500000D03*
X106500000Y-119000000D03*
X119000000Y-111000000D03*
X154600000Y-107300000D03*
X112600000Y-107300000D03*
X169200000Y-111800000D03*
X109800000Y-107000000D03*
X122000000Y-104500000D03*
X171500000Y-123000000D03*
X116200000Y-107000000D03*
X109000000Y-111600000D03*
X137200000Y-110000000D03*
X144400000Y-104600000D03*
X130000000Y-122750000D03*
%TO.N,/SEL*%
X148000000Y-109600000D03*
%TO.N,Net-(U9-VIN)*%
X115400000Y-107600000D03*
X110600000Y-107700000D03*
%TD*%
%TO.N,VBUS*%
D20*
X105300000Y-110950000D02*
X105300000Y-113400000D01*
X156025000Y-124425000D02*
X150000000Y-118400000D01*
X146500000Y-123500000D02*
X135100000Y-123500000D01*
X137850000Y-107450000D02*
X130000000Y-115300000D01*
X164025000Y-124425000D02*
X156025000Y-124425000D01*
X168000000Y-119150000D02*
X168000000Y-112250000D01*
X126500000Y-123500000D02*
X115100000Y-123500000D01*
X135100000Y-123500000D02*
X130000000Y-118400000D01*
X130000000Y-120000000D02*
X126500000Y-123500000D01*
X171375000Y-124425000D02*
X164025000Y-124425000D01*
X137850000Y-107450000D02*
X141900000Y-103400000D01*
X130000000Y-118400000D02*
X130000000Y-120000000D01*
X110000000Y-118400000D02*
X110000000Y-118100000D01*
X150000000Y-118400000D02*
X150000000Y-120000000D01*
X168000000Y-121050000D02*
X171375000Y-124425000D01*
X130000000Y-115300000D02*
X125400000Y-115300000D01*
X110000000Y-120000000D02*
X106500000Y-123500000D01*
X104100000Y-109750000D02*
X105300000Y-110950000D01*
X110000000Y-120000000D02*
X106500000Y-123500000D01*
X125400000Y-115300000D02*
X121100000Y-111000000D01*
X110000000Y-118100000D02*
X105300000Y-113400000D01*
X130000000Y-115300000D02*
X130000000Y-118400000D01*
X115100000Y-123500000D02*
X110000000Y-118400000D01*
X130000000Y-120000000D02*
X126500000Y-123500000D01*
X168000000Y-112250000D02*
X163000000Y-107250000D01*
X168000000Y-119150000D02*
X168000000Y-121050000D01*
X150000000Y-120000000D02*
X146500000Y-123500000D01*
X110000000Y-118400000D02*
X110000000Y-120000000D01*
%TO.N,/SEL*%
D21*
X158650000Y-109600000D02*
X161000000Y-107250000D01*
X148000000Y-109600000D02*
X158650000Y-109600000D01*
%TO.N,Net-(U9-VIN)*%
D20*
X111100000Y-108200000D02*
X110600000Y-107700000D01*
X115400000Y-107600000D02*
X114800000Y-108200000D01*
X114800000Y-108200000D02*
X111100000Y-108200000D01*
%TD*%
%TA.AperFunction,Conductor*%
%TO.N,GND*%
G36*
X107795242Y-100320185D02*
G01*
X107840997Y-100372989D01*
X107850941Y-100442147D01*
X107842764Y-100471953D01*
X107814586Y-100539979D01*
X107814584Y-100539987D01*
X107780000Y-100713853D01*
X107780000Y-100852500D01*
X108380001Y-100852500D01*
X108380001Y-101352500D01*
X107780000Y-101352500D01*
X107780000Y-101491146D01*
X107814584Y-101665012D01*
X107814586Y-101665020D01*
X107882428Y-101828807D01*
X107882433Y-101828816D01*
X107980923Y-101976216D01*
X107980926Y-101976220D01*
X108106279Y-102101573D01*
X108106283Y-102101576D01*
X108253683Y-102200066D01*
X108253693Y-102200071D01*
X108417476Y-102267912D01*
X108417483Y-102267915D01*
X108430000Y-102270404D01*
X108430000Y-101569485D01*
X108439941Y-101586704D01*
X108495796Y-101642559D01*
X108564205Y-101682055D01*
X108640504Y-101702499D01*
X108719496Y-101702499D01*
X108795795Y-101682055D01*
X108864204Y-101642559D01*
X108920059Y-101586704D01*
X108930000Y-101569485D01*
X108930000Y-102270403D01*
X108942516Y-102267915D01*
X108942523Y-102267912D01*
X109106306Y-102200071D01*
X109106316Y-102200066D01*
X109253716Y-102101576D01*
X109253720Y-102101573D01*
X109379073Y-101976220D01*
X109379076Y-101976216D01*
X109477566Y-101828816D01*
X109477571Y-101828807D01*
X109545413Y-101665020D01*
X109545415Y-101665012D01*
X109579999Y-101491146D01*
X109580000Y-101491143D01*
X109580000Y-101352500D01*
X108979999Y-101352500D01*
X108979999Y-100852500D01*
X109580000Y-100852500D01*
X109580000Y-100713857D01*
X109579999Y-100713853D01*
X109545415Y-100539987D01*
X109545413Y-100539979D01*
X109517236Y-100471953D01*
X109509767Y-100402484D01*
X109541042Y-100340004D01*
X109601131Y-100304352D01*
X109631797Y-100300500D01*
X116368203Y-100300500D01*
X116435242Y-100320185D01*
X116480997Y-100372989D01*
X116490941Y-100442147D01*
X116482764Y-100471953D01*
X116454586Y-100539979D01*
X116454584Y-100539987D01*
X116420000Y-100713853D01*
X116420000Y-100852500D01*
X117020001Y-100852500D01*
X117020001Y-101352500D01*
X116420000Y-101352500D01*
X116420000Y-101491146D01*
X116454584Y-101665012D01*
X116454586Y-101665020D01*
X116522428Y-101828807D01*
X116522433Y-101828816D01*
X116620923Y-101976216D01*
X116620926Y-101976220D01*
X116746279Y-102101573D01*
X116746283Y-102101576D01*
X116893683Y-102200066D01*
X116893693Y-102200071D01*
X117057476Y-102267912D01*
X117057483Y-102267915D01*
X117070000Y-102270404D01*
X117070000Y-101569485D01*
X117079941Y-101586704D01*
X117135796Y-101642559D01*
X117204205Y-101682055D01*
X117280504Y-101702499D01*
X117359496Y-101702499D01*
X117435795Y-101682055D01*
X117504204Y-101642559D01*
X117560059Y-101586704D01*
X117570000Y-101569485D01*
X117570000Y-102270403D01*
X117582516Y-102267915D01*
X117582523Y-102267912D01*
X117746306Y-102200071D01*
X117746316Y-102200066D01*
X117893716Y-102101576D01*
X117893720Y-102101573D01*
X118019073Y-101976220D01*
X118019076Y-101976216D01*
X118117566Y-101828816D01*
X118117571Y-101828807D01*
X118185413Y-101665020D01*
X118185415Y-101665012D01*
X118219999Y-101491146D01*
X118220000Y-101491143D01*
X118220000Y-101352500D01*
X117619999Y-101352500D01*
X117619999Y-100852500D01*
X118220000Y-100852500D01*
X118220000Y-100713857D01*
X118219999Y-100713853D01*
X118185415Y-100539987D01*
X118185413Y-100539979D01*
X118157236Y-100471953D01*
X118149767Y-100402484D01*
X118181042Y-100340004D01*
X118241131Y-100304352D01*
X118271797Y-100300500D01*
X124328203Y-100300500D01*
X124395242Y-100320185D01*
X124440997Y-100372989D01*
X124450941Y-100442147D01*
X124442764Y-100471953D01*
X124414586Y-100539979D01*
X124414584Y-100539987D01*
X124380000Y-100713853D01*
X124380000Y-100852500D01*
X124980001Y-100852500D01*
X124980001Y-101352500D01*
X124380000Y-101352500D01*
X124380000Y-101491146D01*
X124414584Y-101665012D01*
X124414586Y-101665020D01*
X124482428Y-101828807D01*
X124482433Y-101828816D01*
X124580923Y-101976216D01*
X124580926Y-101976220D01*
X124706279Y-102101573D01*
X124706283Y-102101576D01*
X124853683Y-102200066D01*
X124853693Y-102200071D01*
X125017476Y-102267912D01*
X125017483Y-102267915D01*
X125030000Y-102270404D01*
X125030000Y-101569485D01*
X125039941Y-101586704D01*
X125095796Y-101642559D01*
X125164205Y-101682055D01*
X125240504Y-101702499D01*
X125319496Y-101702499D01*
X125395795Y-101682055D01*
X125464204Y-101642559D01*
X125520059Y-101586704D01*
X125530000Y-101569485D01*
X125530000Y-102270403D01*
X125542516Y-102267915D01*
X125542523Y-102267912D01*
X125706306Y-102200071D01*
X125706316Y-102200066D01*
X125853716Y-102101576D01*
X125853720Y-102101573D01*
X125979073Y-101976220D01*
X125979076Y-101976216D01*
X126077566Y-101828816D01*
X126077571Y-101828807D01*
X126145413Y-101665020D01*
X126145415Y-101665012D01*
X126179999Y-101491146D01*
X126180000Y-101491143D01*
X126180000Y-101352500D01*
X125579999Y-101352500D01*
X125579999Y-100852500D01*
X126180000Y-100852500D01*
X126180000Y-100713857D01*
X126179999Y-100713853D01*
X126145415Y-100539987D01*
X126145413Y-100539979D01*
X126117236Y-100471953D01*
X126109767Y-100402484D01*
X126141042Y-100340004D01*
X126201131Y-100304352D01*
X126231797Y-100300500D01*
X132968203Y-100300500D01*
X133035242Y-100320185D01*
X133080997Y-100372989D01*
X133090941Y-100442147D01*
X133082764Y-100471953D01*
X133054586Y-100539979D01*
X133054584Y-100539987D01*
X133020000Y-100713853D01*
X133020000Y-100852500D01*
X133620001Y-100852500D01*
X133620001Y-101352500D01*
X133020000Y-101352500D01*
X133020000Y-101491146D01*
X133054584Y-101665012D01*
X133054586Y-101665020D01*
X133122428Y-101828807D01*
X133122433Y-101828816D01*
X133220923Y-101976216D01*
X133220926Y-101976220D01*
X133346279Y-102101573D01*
X133346283Y-102101576D01*
X133493683Y-102200066D01*
X133493693Y-102200071D01*
X133657476Y-102267912D01*
X133657483Y-102267915D01*
X133670000Y-102270404D01*
X133670000Y-101569485D01*
X133679941Y-101586704D01*
X133735796Y-101642559D01*
X133804205Y-101682055D01*
X133880504Y-101702499D01*
X133959496Y-101702499D01*
X134035795Y-101682055D01*
X134104204Y-101642559D01*
X134160059Y-101586704D01*
X134170000Y-101569485D01*
X134170000Y-102270403D01*
X134182516Y-102267915D01*
X134182523Y-102267912D01*
X134346306Y-102200071D01*
X134346316Y-102200066D01*
X134493716Y-102101576D01*
X134493720Y-102101573D01*
X134619073Y-101976220D01*
X134619076Y-101976216D01*
X134717564Y-101828819D01*
X134717571Y-101828807D01*
X134785413Y-101665020D01*
X134785415Y-101665012D01*
X134819999Y-101491146D01*
X134820000Y-101491143D01*
X134820000Y-101352500D01*
X134219999Y-101352500D01*
X134219999Y-100852500D01*
X134820000Y-100852500D01*
X134820000Y-100713857D01*
X134819999Y-100713853D01*
X134785415Y-100539987D01*
X134785413Y-100539979D01*
X134757236Y-100471953D01*
X134749767Y-100402484D01*
X134781042Y-100340004D01*
X134841131Y-100304352D01*
X134871797Y-100300500D01*
X170952405Y-100300500D01*
X170996949Y-100300500D01*
X171003032Y-100300648D01*
X171356532Y-100318015D01*
X171368640Y-100319208D01*
X171477576Y-100335367D01*
X171715717Y-100370692D01*
X171727635Y-100373062D01*
X172068008Y-100458321D01*
X172079646Y-100461852D01*
X172409996Y-100580054D01*
X172421237Y-100584710D01*
X172646857Y-100691419D01*
X172738433Y-100734731D01*
X172749150Y-100740459D01*
X173050102Y-100920843D01*
X173060217Y-100927601D01*
X173342049Y-101136622D01*
X173351455Y-101144342D01*
X173611434Y-101379974D01*
X173620025Y-101388565D01*
X173799608Y-101586704D01*
X173855657Y-101648544D01*
X173863377Y-101657950D01*
X174072396Y-101939779D01*
X174079156Y-101949897D01*
X174132269Y-102038511D01*
X174257057Y-102246707D01*
X174259533Y-102250837D01*
X174265270Y-102261570D01*
X174415289Y-102578762D01*
X174419945Y-102590003D01*
X174538147Y-102920353D01*
X174541680Y-102931998D01*
X174626934Y-103272351D01*
X174629308Y-103284287D01*
X174680791Y-103631359D01*
X174681984Y-103643468D01*
X174699351Y-103996966D01*
X174699500Y-104003051D01*
X174699500Y-130996948D01*
X174699351Y-131003033D01*
X174681984Y-131356531D01*
X174680791Y-131368640D01*
X174629308Y-131715712D01*
X174626934Y-131727648D01*
X174541680Y-132068001D01*
X174538147Y-132079646D01*
X174419945Y-132409996D01*
X174415289Y-132421237D01*
X174265270Y-132738429D01*
X174259533Y-132749162D01*
X174079156Y-133050102D01*
X174072396Y-133060220D01*
X173863377Y-133342049D01*
X173855657Y-133351455D01*
X173620032Y-133611427D01*
X173611427Y-133620032D01*
X173351455Y-133855657D01*
X173342049Y-133863377D01*
X173060220Y-134072396D01*
X173050102Y-134079156D01*
X172811633Y-134222089D01*
X172744011Y-134239671D01*
X172677619Y-134217902D01*
X172633536Y-134163695D01*
X172625757Y-134094259D01*
X172633323Y-134068278D01*
X172685413Y-133942520D01*
X172685415Y-133942512D01*
X172719999Y-133768646D01*
X172720000Y-133768643D01*
X172720000Y-133630000D01*
X172119999Y-133630000D01*
X172119999Y-133130000D01*
X172720000Y-133130000D01*
X172720000Y-132991357D01*
X172719999Y-132991353D01*
X172685415Y-132817487D01*
X172685413Y-132817479D01*
X172617571Y-132653692D01*
X172617566Y-132653683D01*
X172519076Y-132506283D01*
X172519073Y-132506279D01*
X172393720Y-132380926D01*
X172393716Y-132380923D01*
X172246316Y-132282433D01*
X172246307Y-132282428D01*
X172082519Y-132214585D01*
X172070000Y-132212094D01*
X172070000Y-132913014D01*
X172060059Y-132895796D01*
X172004204Y-132839941D01*
X171935795Y-132800445D01*
X171859496Y-132780001D01*
X171780504Y-132780001D01*
X171704205Y-132800445D01*
X171635796Y-132839941D01*
X171579941Y-132895796D01*
X171570000Y-132913014D01*
X171570000Y-132212095D01*
X171569999Y-132212094D01*
X171557480Y-132214585D01*
X171393692Y-132282428D01*
X171393683Y-132282433D01*
X171246283Y-132380923D01*
X171246279Y-132380926D01*
X171120926Y-132506279D01*
X171120923Y-132506283D01*
X171022433Y-132653683D01*
X171022428Y-132653692D01*
X170954586Y-132817479D01*
X170954584Y-132817487D01*
X170920000Y-132991353D01*
X170920000Y-133130000D01*
X171520001Y-133130000D01*
X171520001Y-133630000D01*
X170920000Y-133630000D01*
X170920000Y-133768646D01*
X170954584Y-133942512D01*
X170954586Y-133942520D01*
X171022428Y-134106307D01*
X171022433Y-134106316D01*
X171120923Y-134253716D01*
X171120926Y-134253720D01*
X171246279Y-134379073D01*
X171246283Y-134379076D01*
X171364025Y-134457749D01*
X171408830Y-134511361D01*
X171417537Y-134580686D01*
X171387383Y-134643713D01*
X171327940Y-134680433D01*
X171301218Y-134684702D01*
X171003033Y-134699351D01*
X170996949Y-134699500D01*
X163682942Y-134699500D01*
X163615903Y-134679815D01*
X163570148Y-134627011D01*
X163560204Y-134557853D01*
X163589229Y-134494297D01*
X163614051Y-134472398D01*
X163753717Y-134379076D01*
X163879073Y-134253720D01*
X163879076Y-134253716D01*
X163977566Y-134106316D01*
X163977571Y-134106307D01*
X164045413Y-133942520D01*
X164045415Y-133942512D01*
X164079999Y-133768646D01*
X164080000Y-133768643D01*
X164080000Y-133630000D01*
X163479999Y-133630000D01*
X163479999Y-133130000D01*
X164080000Y-133130000D01*
X164080000Y-132991357D01*
X164079999Y-132991353D01*
X164045415Y-132817487D01*
X164045413Y-132817479D01*
X163977571Y-132653692D01*
X163977566Y-132653683D01*
X163879076Y-132506283D01*
X163879073Y-132506279D01*
X163753720Y-132380926D01*
X163753716Y-132380923D01*
X163606316Y-132282433D01*
X163606307Y-132282428D01*
X163442519Y-132214585D01*
X163430000Y-132212094D01*
X163430000Y-132913014D01*
X163420059Y-132895796D01*
X163364204Y-132839941D01*
X163295795Y-132800445D01*
X163219496Y-132780001D01*
X163140504Y-132780001D01*
X163064205Y-132800445D01*
X162995796Y-132839941D01*
X162939941Y-132895796D01*
X162930000Y-132913014D01*
X162930000Y-132212095D01*
X162929999Y-132212094D01*
X162917480Y-132214585D01*
X162753692Y-132282428D01*
X162753683Y-132282433D01*
X162606283Y-132380923D01*
X162606279Y-132380926D01*
X162480926Y-132506279D01*
X162480923Y-132506283D01*
X162382433Y-132653683D01*
X162382428Y-132653692D01*
X162314586Y-132817479D01*
X162314584Y-132817487D01*
X162280000Y-132991353D01*
X162280000Y-133130000D01*
X162880001Y-133130000D01*
X162880001Y-133630000D01*
X162280000Y-133630000D01*
X162280000Y-133768646D01*
X162314584Y-133942512D01*
X162314586Y-133942520D01*
X162382428Y-134106307D01*
X162382433Y-134106316D01*
X162480923Y-134253716D01*
X162480926Y-134253720D01*
X162606282Y-134379076D01*
X162745949Y-134472398D01*
X162790754Y-134526010D01*
X162799461Y-134595335D01*
X162769307Y-134658362D01*
X162709864Y-134695082D01*
X162677058Y-134699500D01*
X104003051Y-134699500D01*
X103996968Y-134699351D01*
X103975811Y-134698311D01*
X103643468Y-134681984D01*
X103631359Y-134680791D01*
X103284287Y-134629308D01*
X103272351Y-134626934D01*
X102931998Y-134541680D01*
X102920353Y-134538147D01*
X102590003Y-134419945D01*
X102578762Y-134415289D01*
X102261570Y-134265270D01*
X102250842Y-134259535D01*
X102038511Y-134132269D01*
X101949897Y-134079156D01*
X101939779Y-134072396D01*
X101657950Y-133863377D01*
X101648544Y-133855657D01*
X101610871Y-133821512D01*
X101388565Y-133620025D01*
X101379974Y-133611434D01*
X101144342Y-133351455D01*
X101136622Y-133342049D01*
X100927601Y-133060217D01*
X100920869Y-133050145D01*
X100920210Y-133049045D01*
X100920206Y-133049030D01*
X100920192Y-133049016D01*
X100740459Y-132749150D01*
X100734729Y-132738429D01*
X100584710Y-132421237D01*
X100580054Y-132409996D01*
X100461852Y-132079646D01*
X100458319Y-132068001D01*
X100373062Y-131727635D01*
X100370691Y-131715712D01*
X100319208Y-131368640D01*
X100318015Y-131356530D01*
X100300649Y-131003032D01*
X100300500Y-130996948D01*
X100300500Y-127625466D01*
X101530000Y-127625466D01*
X101530000Y-127874533D01*
X101562508Y-128121463D01*
X101626973Y-128362049D01*
X101722283Y-128592148D01*
X101722288Y-128592159D01*
X101846813Y-128807841D01*
X101846819Y-128807849D01*
X101921400Y-128905045D01*
X102457905Y-128368540D01*
X102552822Y-128499181D01*
X102680819Y-128627178D01*
X102811458Y-128722093D01*
X102274953Y-129258598D01*
X102372150Y-129333180D01*
X102372158Y-129333186D01*
X102587840Y-129457711D01*
X102587851Y-129457716D01*
X102817950Y-129553026D01*
X103058536Y-129617491D01*
X103305466Y-129650000D01*
X103554534Y-129650000D01*
X103801463Y-129617491D01*
X104042049Y-129553026D01*
X104272148Y-129457716D01*
X104272159Y-129457711D01*
X104487855Y-129333178D01*
X104585045Y-129258600D01*
X104585045Y-129258597D01*
X104048541Y-128722094D01*
X104179181Y-128627178D01*
X104307178Y-128499181D01*
X104402093Y-128368541D01*
X104938597Y-128905045D01*
X104938600Y-128905045D01*
X105013178Y-128807855D01*
X105137711Y-128592159D01*
X105137716Y-128592148D01*
X105233026Y-128362049D01*
X105297491Y-128121463D01*
X105330000Y-127874533D01*
X105330000Y-127625466D01*
X114670000Y-127625466D01*
X114670000Y-127874533D01*
X114702508Y-128121463D01*
X114766973Y-128362049D01*
X114862283Y-128592148D01*
X114862288Y-128592159D01*
X114986813Y-128807841D01*
X114986819Y-128807849D01*
X115061400Y-128905045D01*
X115597905Y-128368540D01*
X115692822Y-128499181D01*
X115820819Y-128627178D01*
X115951458Y-128722093D01*
X115414953Y-129258598D01*
X115512150Y-129333180D01*
X115512158Y-129333186D01*
X115727840Y-129457711D01*
X115727851Y-129457716D01*
X115957950Y-129553026D01*
X116198536Y-129617491D01*
X116445466Y-129650000D01*
X116694534Y-129650000D01*
X116941463Y-129617491D01*
X117182049Y-129553026D01*
X117412148Y-129457716D01*
X117412159Y-129457711D01*
X117627855Y-129333178D01*
X117725045Y-129258600D01*
X117725045Y-129258597D01*
X117188541Y-128722094D01*
X117319181Y-128627178D01*
X117447178Y-128499181D01*
X117542094Y-128368541D01*
X118078597Y-128905045D01*
X118078600Y-128905045D01*
X118153178Y-128807855D01*
X118277711Y-128592159D01*
X118277716Y-128592148D01*
X118373026Y-128362049D01*
X118437491Y-128121463D01*
X118470000Y-127874533D01*
X118470000Y-127625466D01*
X121530000Y-127625466D01*
X121530000Y-127874533D01*
X121562508Y-128121463D01*
X121626973Y-128362049D01*
X121722283Y-128592148D01*
X121722288Y-128592159D01*
X121846813Y-128807841D01*
X121846819Y-128807849D01*
X121921400Y-128905045D01*
X122457905Y-128368540D01*
X122552822Y-128499181D01*
X122680819Y-128627178D01*
X122811458Y-128722093D01*
X122274953Y-129258598D01*
X122372150Y-129333180D01*
X122372158Y-129333186D01*
X122587840Y-129457711D01*
X122587851Y-129457716D01*
X122817950Y-129553026D01*
X123058536Y-129617491D01*
X123305466Y-129650000D01*
X123554534Y-129650000D01*
X123801463Y-129617491D01*
X124042049Y-129553026D01*
X124272148Y-129457716D01*
X124272159Y-129457711D01*
X124487855Y-129333178D01*
X124585045Y-129258600D01*
X124585045Y-129258597D01*
X124048541Y-128722094D01*
X124179181Y-128627178D01*
X124307178Y-128499181D01*
X124402093Y-128368541D01*
X124938597Y-128905045D01*
X124938600Y-128905045D01*
X125013178Y-128807855D01*
X125137711Y-128592159D01*
X125137716Y-128592148D01*
X125233026Y-128362049D01*
X125297491Y-128121463D01*
X125330000Y-127874533D01*
X125330000Y-127625466D01*
X134670000Y-127625466D01*
X134670000Y-127874533D01*
X134702508Y-128121463D01*
X134766973Y-128362049D01*
X134862283Y-128592148D01*
X134862288Y-128592159D01*
X134986813Y-128807841D01*
X134986819Y-128807849D01*
X135061400Y-128905045D01*
X135597905Y-128368540D01*
X135692822Y-128499181D01*
X135820819Y-128627178D01*
X135951458Y-128722093D01*
X135414953Y-129258598D01*
X135512150Y-129333180D01*
X135512158Y-129333186D01*
X135727840Y-129457711D01*
X135727851Y-129457716D01*
X135957950Y-129553026D01*
X136198536Y-129617491D01*
X136445466Y-129650000D01*
X136694534Y-129650000D01*
X136941463Y-129617491D01*
X137182049Y-129553026D01*
X137412148Y-129457716D01*
X137412159Y-129457711D01*
X137627855Y-129333178D01*
X137725045Y-129258600D01*
X137725045Y-129258597D01*
X137188541Y-128722094D01*
X137319181Y-128627178D01*
X137447178Y-128499181D01*
X137542093Y-128368541D01*
X138078597Y-128905045D01*
X138078600Y-128905045D01*
X138153178Y-128807855D01*
X138277711Y-128592159D01*
X138277716Y-128592148D01*
X138373026Y-128362049D01*
X138437491Y-128121463D01*
X138470000Y-127874533D01*
X138470000Y-127625466D01*
X141530000Y-127625466D01*
X141530000Y-127874533D01*
X141562508Y-128121463D01*
X141626973Y-128362049D01*
X141722283Y-128592148D01*
X141722288Y-128592159D01*
X141846813Y-128807841D01*
X141846819Y-128807849D01*
X141921400Y-128905045D01*
X142457905Y-128368540D01*
X142552822Y-128499181D01*
X142680819Y-128627178D01*
X142811458Y-128722093D01*
X142274953Y-129258598D01*
X142372150Y-129333180D01*
X142372158Y-129333186D01*
X142587840Y-129457711D01*
X142587851Y-129457716D01*
X142817950Y-129553026D01*
X143058536Y-129617491D01*
X143305466Y-129650000D01*
X143554534Y-129650000D01*
X143801463Y-129617491D01*
X144042049Y-129553026D01*
X144272148Y-129457716D01*
X144272159Y-129457711D01*
X144487855Y-129333178D01*
X144585045Y-129258600D01*
X144585045Y-129258597D01*
X144048541Y-128722094D01*
X144179181Y-128627178D01*
X144307178Y-128499181D01*
X144402093Y-128368541D01*
X144938597Y-128905045D01*
X144938600Y-128905045D01*
X145013178Y-128807855D01*
X145137711Y-128592159D01*
X145137716Y-128592148D01*
X145233026Y-128362049D01*
X145297491Y-128121463D01*
X145330000Y-127874533D01*
X145330000Y-127625466D01*
X154670000Y-127625466D01*
X154670000Y-127874533D01*
X154702508Y-128121463D01*
X154766973Y-128362049D01*
X154862283Y-128592148D01*
X154862288Y-128592159D01*
X154986813Y-128807841D01*
X154986819Y-128807849D01*
X155061400Y-128905045D01*
X155597905Y-128368540D01*
X155692822Y-128499181D01*
X155820819Y-128627178D01*
X155951458Y-128722093D01*
X155414953Y-129258598D01*
X155512150Y-129333180D01*
X155512158Y-129333186D01*
X155727840Y-129457711D01*
X155727851Y-129457716D01*
X155957950Y-129553026D01*
X156198536Y-129617491D01*
X156445466Y-129650000D01*
X156694534Y-129650000D01*
X156941463Y-129617491D01*
X157182049Y-129553026D01*
X157412148Y-129457716D01*
X157412159Y-129457711D01*
X157627851Y-129333180D01*
X157709845Y-129270263D01*
X157709847Y-129270262D01*
X157725045Y-129258599D01*
X157725045Y-129258597D01*
X157188541Y-128722094D01*
X157319181Y-128627178D01*
X157447178Y-128499181D01*
X157542093Y-128368541D01*
X158078597Y-128905045D01*
X158078600Y-128905045D01*
X158153178Y-128807855D01*
X158252239Y-128636277D01*
X162330000Y-128636277D01*
X162330000Y-128920000D01*
X162880001Y-128920000D01*
X162880001Y-129420000D01*
X162330000Y-129420000D01*
X162330000Y-129703722D01*
X162362663Y-129867928D01*
X162362665Y-129867936D01*
X162426740Y-130022627D01*
X162426740Y-130022628D01*
X162519758Y-130161839D01*
X162519764Y-130161847D01*
X162638152Y-130280235D01*
X162638160Y-130280241D01*
X162777372Y-130373259D01*
X162929999Y-130436479D01*
X162930000Y-130436479D01*
X162930000Y-129786985D01*
X162939941Y-129804204D01*
X162995796Y-129860059D01*
X163064205Y-129899555D01*
X163140504Y-129919999D01*
X163219496Y-129919999D01*
X163295795Y-129899555D01*
X163364204Y-129860059D01*
X163420059Y-129804204D01*
X163430000Y-129786985D01*
X163430000Y-130436479D01*
X163582627Y-130373259D01*
X163582628Y-130373259D01*
X163721839Y-130280241D01*
X163721847Y-130280235D01*
X163840236Y-130161846D01*
X163885138Y-130094645D01*
X163938750Y-130049840D01*
X164008075Y-130041131D01*
X164071103Y-130071286D01*
X164091342Y-130094643D01*
X164104721Y-130114666D01*
X164104726Y-130114672D01*
X164195327Y-130205273D01*
X164195331Y-130205276D01*
X164301866Y-130276461D01*
X164301875Y-130276466D01*
X164310989Y-130280241D01*
X164420256Y-130325501D01*
X164420260Y-130325501D01*
X164420261Y-130325502D01*
X164545928Y-130350500D01*
X164545931Y-130350500D01*
X164674071Y-130350500D01*
X164758615Y-130333682D01*
X164799744Y-130325501D01*
X164918127Y-130276465D01*
X165024669Y-130205276D01*
X165115276Y-130114669D01*
X165186465Y-130008127D01*
X165235501Y-129889744D01*
X165252514Y-129804216D01*
X165260500Y-129764071D01*
X169739499Y-129764071D01*
X169764497Y-129889738D01*
X169764499Y-129889744D01*
X169813533Y-130008124D01*
X169813538Y-130008133D01*
X169884723Y-130114668D01*
X169884726Y-130114672D01*
X169975327Y-130205273D01*
X169975331Y-130205276D01*
X170081866Y-130276461D01*
X170081875Y-130276466D01*
X170090989Y-130280241D01*
X170200256Y-130325501D01*
X170200260Y-130325501D01*
X170200261Y-130325502D01*
X170325928Y-130350500D01*
X170325931Y-130350500D01*
X170454071Y-130350500D01*
X170538615Y-130333682D01*
X170579744Y-130325501D01*
X170698127Y-130276465D01*
X170804669Y-130205276D01*
X170895276Y-130114669D01*
X170908656Y-130094645D01*
X170962266Y-130049840D01*
X171031591Y-130041131D01*
X171094619Y-130071285D01*
X171114860Y-130094644D01*
X171159761Y-130161843D01*
X171159764Y-130161847D01*
X171278152Y-130280235D01*
X171278160Y-130280241D01*
X171417372Y-130373259D01*
X171569999Y-130436479D01*
X171570000Y-130436479D01*
X171570000Y-129786997D01*
X171579941Y-129804216D01*
X171635796Y-129860071D01*
X171704205Y-129899567D01*
X171780504Y-129920011D01*
X171859496Y-129920011D01*
X171935795Y-129899567D01*
X172004204Y-129860071D01*
X172060059Y-129804216D01*
X172070000Y-129786997D01*
X172070000Y-130436479D01*
X172222627Y-130373259D01*
X172222628Y-130373259D01*
X172361839Y-130280241D01*
X172361847Y-130280235D01*
X172480235Y-130161847D01*
X172480241Y-130161839D01*
X172573259Y-130022628D01*
X172573259Y-130022627D01*
X172637334Y-129867936D01*
X172637336Y-129867928D01*
X172669999Y-129703722D01*
X172670000Y-129703720D01*
X172670000Y-129420000D01*
X172119999Y-129420000D01*
X172119999Y-128920000D01*
X172670000Y-128920000D01*
X172670000Y-128636279D01*
X172669999Y-128636277D01*
X172637336Y-128472071D01*
X172637334Y-128472063D01*
X172573259Y-128317372D01*
X172573259Y-128317371D01*
X172480241Y-128178160D01*
X172480235Y-128178152D01*
X172361844Y-128059761D01*
X172222632Y-127966743D01*
X172222622Y-127966738D01*
X172070000Y-127903519D01*
X172070000Y-128553002D01*
X172060059Y-128535784D01*
X172004204Y-128479929D01*
X171935795Y-128440433D01*
X171859496Y-128419989D01*
X171780504Y-128419989D01*
X171704205Y-128440433D01*
X171635796Y-128479929D01*
X171579941Y-128535784D01*
X171570000Y-128553002D01*
X171570000Y-127903519D01*
X171417377Y-127966738D01*
X171417367Y-127966743D01*
X171278155Y-128059761D01*
X171159764Y-128178152D01*
X171159758Y-128178160D01*
X171066740Y-128317371D01*
X171066740Y-128317372D01*
X171002665Y-128472063D01*
X171002663Y-128472071D01*
X170970000Y-128636277D01*
X170970000Y-128920000D01*
X171520001Y-128920000D01*
X171520001Y-129420000D01*
X171051538Y-129420000D01*
X170984499Y-129400315D01*
X170948436Y-129364891D01*
X170895276Y-129285331D01*
X170895274Y-129285328D01*
X170804672Y-129194726D01*
X170804668Y-129194723D01*
X170698133Y-129123538D01*
X170698124Y-129123533D01*
X170579744Y-129074499D01*
X170579738Y-129074497D01*
X170454071Y-129049500D01*
X170454069Y-129049500D01*
X170325931Y-129049500D01*
X170325929Y-129049500D01*
X170200261Y-129074497D01*
X170200255Y-129074499D01*
X170081875Y-129123533D01*
X170081866Y-129123538D01*
X169975331Y-129194723D01*
X169975327Y-129194726D01*
X169884726Y-129285327D01*
X169884723Y-129285331D01*
X169813538Y-129391866D01*
X169813533Y-129391875D01*
X169764499Y-129510255D01*
X169764497Y-129510261D01*
X169739500Y-129635928D01*
X169739500Y-129635931D01*
X169739500Y-129764069D01*
X169739500Y-129764071D01*
X169739499Y-129764071D01*
X165260500Y-129764071D01*
X165260500Y-129635928D01*
X165235502Y-129510261D01*
X165235501Y-129510260D01*
X165235501Y-129510256D01*
X165186465Y-129391873D01*
X165186464Y-129391872D01*
X165186461Y-129391866D01*
X165115276Y-129285331D01*
X165115273Y-129285327D01*
X165024672Y-129194726D01*
X165024668Y-129194723D01*
X164918133Y-129123538D01*
X164918124Y-129123533D01*
X164799744Y-129074499D01*
X164799738Y-129074497D01*
X164674071Y-129049500D01*
X164674069Y-129049500D01*
X164545931Y-129049500D01*
X164545929Y-129049500D01*
X164420261Y-129074497D01*
X164420255Y-129074499D01*
X164301875Y-129123533D01*
X164301866Y-129123538D01*
X164195331Y-129194723D01*
X164195327Y-129194726D01*
X164104725Y-129285328D01*
X164072754Y-129333178D01*
X164051563Y-129364891D01*
X163997953Y-129409696D01*
X163948462Y-129420000D01*
X163479999Y-129420000D01*
X163479999Y-128920000D01*
X164030000Y-128920000D01*
X164030000Y-128636279D01*
X164029999Y-128636277D01*
X163997336Y-128472071D01*
X163997334Y-128472063D01*
X163933259Y-128317372D01*
X163933259Y-128317371D01*
X163840241Y-128178160D01*
X163840235Y-128178152D01*
X163721844Y-128059761D01*
X163582632Y-127966743D01*
X163582622Y-127966738D01*
X163430000Y-127903519D01*
X163430000Y-128553014D01*
X163420059Y-128535796D01*
X163364204Y-128479941D01*
X163295795Y-128440445D01*
X163219496Y-128420001D01*
X163140504Y-128420001D01*
X163064205Y-128440445D01*
X162995796Y-128479941D01*
X162939941Y-128535796D01*
X162930000Y-128553014D01*
X162930000Y-127903519D01*
X162777377Y-127966738D01*
X162777367Y-127966743D01*
X162638155Y-128059761D01*
X162519764Y-128178152D01*
X162519758Y-128178160D01*
X162426740Y-128317371D01*
X162426740Y-128317372D01*
X162362665Y-128472063D01*
X162362663Y-128472071D01*
X162330000Y-128636277D01*
X158252239Y-128636277D01*
X158277711Y-128592159D01*
X158277719Y-128592143D01*
X158281615Y-128582738D01*
X158281615Y-128582737D01*
X158373026Y-128362049D01*
X158437491Y-128121463D01*
X158470000Y-127874533D01*
X158470000Y-127625466D01*
X158437491Y-127378536D01*
X158373026Y-127137950D01*
X158277716Y-126907851D01*
X158277711Y-126907840D01*
X158153186Y-126692158D01*
X158153180Y-126692150D01*
X158078598Y-126594953D01*
X157542093Y-127131457D01*
X157447178Y-127000819D01*
X157319181Y-126872822D01*
X157188540Y-126777904D01*
X157725045Y-126241400D01*
X157627849Y-126166819D01*
X157627841Y-126166813D01*
X157412159Y-126042288D01*
X157412148Y-126042283D01*
X157182049Y-125946973D01*
X156941463Y-125882508D01*
X156694534Y-125850000D01*
X156445466Y-125850000D01*
X156198536Y-125882508D01*
X155957950Y-125946973D01*
X155727851Y-126042283D01*
X155727847Y-126042285D01*
X155512143Y-126166823D01*
X155414953Y-126241399D01*
X155414953Y-126241400D01*
X155951458Y-126777905D01*
X155820819Y-126872822D01*
X155692822Y-127000819D01*
X155597905Y-127131458D01*
X155061400Y-126594953D01*
X155061399Y-126594953D01*
X154986823Y-126692143D01*
X154862285Y-126907847D01*
X154862283Y-126907851D01*
X154766973Y-127137950D01*
X154702508Y-127378536D01*
X154670000Y-127625466D01*
X145330000Y-127625466D01*
X145297491Y-127378536D01*
X145233026Y-127137950D01*
X145137716Y-126907851D01*
X145137711Y-126907840D01*
X145013186Y-126692158D01*
X145013180Y-126692150D01*
X144938598Y-126594953D01*
X144402093Y-127131457D01*
X144307178Y-127000819D01*
X144179181Y-126872822D01*
X144048540Y-126777904D01*
X144585045Y-126241400D01*
X144487849Y-126166819D01*
X144487841Y-126166813D01*
X144272159Y-126042288D01*
X144272148Y-126042283D01*
X144042049Y-125946973D01*
X143801463Y-125882508D01*
X143554534Y-125850000D01*
X143305466Y-125850000D01*
X143058536Y-125882508D01*
X142817950Y-125946973D01*
X142587851Y-126042283D01*
X142587847Y-126042285D01*
X142372143Y-126166823D01*
X142274953Y-126241399D01*
X142274953Y-126241400D01*
X142811458Y-126777905D01*
X142680819Y-126872822D01*
X142552822Y-127000819D01*
X142457905Y-127131458D01*
X141921400Y-126594953D01*
X141921399Y-126594953D01*
X141846823Y-126692143D01*
X141722285Y-126907847D01*
X141722283Y-126907851D01*
X141626973Y-127137950D01*
X141562508Y-127378536D01*
X141530000Y-127625466D01*
X138470000Y-127625466D01*
X138437491Y-127378536D01*
X138373026Y-127137950D01*
X138277716Y-126907851D01*
X138277711Y-126907840D01*
X138153186Y-126692158D01*
X138153180Y-126692150D01*
X138078598Y-126594953D01*
X137542093Y-127131457D01*
X137447178Y-127000819D01*
X137319181Y-126872822D01*
X137188540Y-126777904D01*
X137725045Y-126241400D01*
X137627849Y-126166819D01*
X137627841Y-126166813D01*
X137412159Y-126042288D01*
X137412148Y-126042283D01*
X137182049Y-125946973D01*
X136941463Y-125882508D01*
X136694534Y-125850000D01*
X136445466Y-125850000D01*
X136198536Y-125882508D01*
X135957950Y-125946973D01*
X135727851Y-126042283D01*
X135727847Y-126042285D01*
X135512143Y-126166823D01*
X135414953Y-126241399D01*
X135414953Y-126241400D01*
X135951458Y-126777905D01*
X135820819Y-126872822D01*
X135692822Y-127000819D01*
X135597905Y-127131458D01*
X135061400Y-126594953D01*
X135061399Y-126594953D01*
X134986823Y-126692143D01*
X134862285Y-126907847D01*
X134862283Y-126907851D01*
X134766973Y-127137950D01*
X134702508Y-127378536D01*
X134670000Y-127625466D01*
X125330000Y-127625466D01*
X125297491Y-127378536D01*
X125233026Y-127137950D01*
X125137716Y-126907851D01*
X125137711Y-126907840D01*
X125013186Y-126692158D01*
X125013180Y-126692150D01*
X124938598Y-126594953D01*
X124402093Y-127131457D01*
X124307178Y-127000819D01*
X124179181Y-126872822D01*
X124048540Y-126777904D01*
X124585045Y-126241400D01*
X124487849Y-126166819D01*
X124487841Y-126166813D01*
X124272159Y-126042288D01*
X124272148Y-126042283D01*
X124042049Y-125946973D01*
X123801463Y-125882508D01*
X123554534Y-125850000D01*
X123305466Y-125850000D01*
X123058536Y-125882508D01*
X122817950Y-125946973D01*
X122587851Y-126042283D01*
X122587847Y-126042285D01*
X122372143Y-126166823D01*
X122274953Y-126241399D01*
X122274953Y-126241400D01*
X122811458Y-126777905D01*
X122680819Y-126872822D01*
X122552822Y-127000819D01*
X122457905Y-127131458D01*
X121921400Y-126594953D01*
X121921399Y-126594953D01*
X121846823Y-126692143D01*
X121722285Y-126907847D01*
X121722283Y-126907851D01*
X121626973Y-127137950D01*
X121562508Y-127378536D01*
X121530000Y-127625466D01*
X118470000Y-127625466D01*
X118437491Y-127378536D01*
X118373026Y-127137950D01*
X118277716Y-126907851D01*
X118277711Y-126907840D01*
X118153186Y-126692158D01*
X118153180Y-126692150D01*
X118078598Y-126594953D01*
X117542093Y-127131457D01*
X117447178Y-127000819D01*
X117319181Y-126872822D01*
X117188540Y-126777904D01*
X117725045Y-126241400D01*
X117627849Y-126166819D01*
X117627841Y-126166813D01*
X117412159Y-126042288D01*
X117412148Y-126042283D01*
X117182049Y-125946973D01*
X116941463Y-125882508D01*
X116694534Y-125850000D01*
X116445466Y-125850000D01*
X116198536Y-125882508D01*
X115957950Y-125946973D01*
X115727851Y-126042283D01*
X115727847Y-126042285D01*
X115512143Y-126166823D01*
X115414953Y-126241399D01*
X115414953Y-126241400D01*
X115951458Y-126777905D01*
X115820819Y-126872822D01*
X115692822Y-127000819D01*
X115597905Y-127131458D01*
X115061400Y-126594953D01*
X115061399Y-126594953D01*
X114986823Y-126692143D01*
X114862285Y-126907847D01*
X114862283Y-126907851D01*
X114766973Y-127137950D01*
X114702508Y-127378536D01*
X114670000Y-127625466D01*
X105330000Y-127625466D01*
X105297491Y-127378536D01*
X105233026Y-127137950D01*
X105137716Y-126907851D01*
X105137711Y-126907840D01*
X105013186Y-126692158D01*
X105013180Y-126692150D01*
X104938598Y-126594953D01*
X104402093Y-127131457D01*
X104307178Y-127000819D01*
X104179181Y-126872822D01*
X104048540Y-126777904D01*
X104585045Y-126241400D01*
X104487849Y-126166819D01*
X104487841Y-126166813D01*
X104272159Y-126042288D01*
X104272148Y-126042283D01*
X104042049Y-125946973D01*
X103801463Y-125882508D01*
X103554534Y-125850000D01*
X103305466Y-125850000D01*
X103058536Y-125882508D01*
X102817950Y-125946973D01*
X102587851Y-126042283D01*
X102587847Y-126042285D01*
X102372143Y-126166823D01*
X102274953Y-126241399D01*
X102274953Y-126241400D01*
X102811458Y-126777905D01*
X102680819Y-126872822D01*
X102552822Y-127000819D01*
X102457905Y-127131458D01*
X101921400Y-126594953D01*
X101921399Y-126594953D01*
X101846823Y-126692143D01*
X101722285Y-126907847D01*
X101722283Y-126907851D01*
X101626973Y-127137950D01*
X101562508Y-127378536D01*
X101530000Y-127625466D01*
X100300500Y-127625466D01*
X100300500Y-109677525D01*
X103549500Y-109677525D01*
X103549500Y-109687238D01*
X103549500Y-109822475D01*
X103563995Y-109876572D01*
X103564007Y-109876614D01*
X103587016Y-109962485D01*
X103659489Y-110088013D01*
X103659491Y-110088016D01*
X104713181Y-111141706D01*
X104746666Y-111203029D01*
X104749500Y-111229387D01*
X104749500Y-113327526D01*
X104749500Y-113472474D01*
X104787016Y-113612485D01*
X104859489Y-113738013D01*
X104859491Y-113738016D01*
X109413181Y-118291706D01*
X109446666Y-118353029D01*
X109449500Y-118379387D01*
X109449500Y-119720613D01*
X109429815Y-119787652D01*
X109413181Y-119808294D01*
X106059491Y-123161983D01*
X106059489Y-123161986D01*
X105987016Y-123287514D01*
X105987016Y-123287515D01*
X105949500Y-123427526D01*
X105949500Y-123572474D01*
X105973708Y-123662819D01*
X105987016Y-123712485D01*
X106059489Y-123838013D01*
X106059491Y-123838016D01*
X106102619Y-123881144D01*
X106136104Y-123942467D01*
X106131120Y-124012159D01*
X106089248Y-124068092D01*
X106062391Y-124083386D01*
X105997668Y-124110195D01*
X105997658Y-124110200D01*
X105823971Y-124226255D01*
X105823967Y-124226258D01*
X105676258Y-124373967D01*
X105676255Y-124373971D01*
X105560200Y-124547658D01*
X105560193Y-124547671D01*
X105480255Y-124740662D01*
X105480253Y-124740670D01*
X105439500Y-124945547D01*
X105439500Y-124945550D01*
X105439500Y-125154450D01*
X105439500Y-125154452D01*
X105439499Y-125154452D01*
X105480253Y-125359329D01*
X105480255Y-125359337D01*
X105560193Y-125552328D01*
X105560200Y-125552341D01*
X105676255Y-125726028D01*
X105676258Y-125726032D01*
X105823967Y-125873741D01*
X105823971Y-125873744D01*
X105997658Y-125989799D01*
X105997671Y-125989806D01*
X106124364Y-126042283D01*
X106190664Y-126069745D01*
X106240834Y-126079724D01*
X106395547Y-126110500D01*
X106395550Y-126110500D01*
X106604452Y-126110500D01*
X106707593Y-126089983D01*
X106809336Y-126069745D01*
X107002335Y-125989803D01*
X107002997Y-125989361D01*
X107004670Y-125988242D01*
X107176029Y-125873744D01*
X107323744Y-125726029D01*
X107439803Y-125552335D01*
X107439903Y-125552095D01*
X107470326Y-125478646D01*
X107519745Y-125359336D01*
X107560500Y-125154452D01*
X107939499Y-125154452D01*
X107980253Y-125359329D01*
X107980255Y-125359337D01*
X108060193Y-125552328D01*
X108060200Y-125552341D01*
X108176255Y-125726028D01*
X108176258Y-125726032D01*
X108323967Y-125873741D01*
X108323971Y-125873744D01*
X108497658Y-125989799D01*
X108497671Y-125989806D01*
X108624364Y-126042283D01*
X108690664Y-126069745D01*
X108740834Y-126079724D01*
X108895547Y-126110500D01*
X108895550Y-126110500D01*
X109104452Y-126110500D01*
X109207593Y-126089983D01*
X109309336Y-126069745D01*
X109502335Y-125989803D01*
X109502997Y-125989361D01*
X109504670Y-125988242D01*
X109676029Y-125873744D01*
X109823744Y-125726029D01*
X109896898Y-125616547D01*
X109950510Y-125571742D01*
X110019835Y-125563035D01*
X110082863Y-125593189D01*
X110103102Y-125616547D01*
X110176255Y-125726028D01*
X110176258Y-125726032D01*
X110323967Y-125873741D01*
X110323971Y-125873744D01*
X110497658Y-125989799D01*
X110497671Y-125989806D01*
X110624364Y-126042283D01*
X110690664Y-126069745D01*
X110740834Y-126079724D01*
X110895547Y-126110500D01*
X110895550Y-126110500D01*
X111104452Y-126110500D01*
X111207593Y-126089983D01*
X111309336Y-126069745D01*
X111502335Y-125989803D01*
X111502997Y-125989361D01*
X111504670Y-125988242D01*
X111676029Y-125873744D01*
X111699773Y-125850000D01*
X111727835Y-125821939D01*
X111823741Y-125726032D01*
X111823744Y-125726029D01*
X111939803Y-125552335D01*
X111939903Y-125552095D01*
X111970326Y-125478646D01*
X112019745Y-125359336D01*
X112060500Y-125154450D01*
X112060500Y-124945594D01*
X112440000Y-124945594D01*
X112440000Y-125154405D01*
X112480733Y-125359183D01*
X112480735Y-125359191D01*
X112560639Y-125552096D01*
X112594168Y-125602276D01*
X112594169Y-125602277D01*
X113049701Y-125146744D01*
X113071354Y-125227551D01*
X113131913Y-125332443D01*
X113217557Y-125418087D01*
X113322449Y-125478646D01*
X113403255Y-125500298D01*
X112947722Y-125955830D01*
X112947722Y-125955831D01*
X112997903Y-125989360D01*
X113190808Y-126069264D01*
X113190816Y-126069266D01*
X113395594Y-126109999D01*
X113395598Y-126110000D01*
X113604402Y-126110000D01*
X113604405Y-126109999D01*
X113809183Y-126069266D01*
X113809191Y-126069264D01*
X114002095Y-125989361D01*
X114052277Y-125955831D01*
X113596744Y-125500298D01*
X113677551Y-125478646D01*
X113782443Y-125418087D01*
X113868087Y-125332443D01*
X113928646Y-125227551D01*
X113950298Y-125146744D01*
X114405831Y-125602277D01*
X114439361Y-125552095D01*
X114519264Y-125359191D01*
X114519266Y-125359183D01*
X114559999Y-125154405D01*
X114560000Y-125154402D01*
X114560000Y-124945598D01*
X114559999Y-124945594D01*
X114519266Y-124740816D01*
X114519264Y-124740808D01*
X114439360Y-124547903D01*
X114405830Y-124497722D01*
X113950297Y-124953254D01*
X113928646Y-124872449D01*
X113868087Y-124767557D01*
X113782443Y-124681913D01*
X113677551Y-124621354D01*
X113596744Y-124599701D01*
X114052277Y-124144169D01*
X114052276Y-124144168D01*
X114002096Y-124110639D01*
X113809191Y-124030735D01*
X113809183Y-124030733D01*
X113604405Y-123990000D01*
X113395594Y-123990000D01*
X113190816Y-124030733D01*
X113190808Y-124030735D01*
X112997903Y-124110639D01*
X112947721Y-124144168D01*
X113403255Y-124599701D01*
X113322449Y-124621354D01*
X113217557Y-124681913D01*
X113131913Y-124767557D01*
X113071354Y-124872449D01*
X113049702Y-124953255D01*
X112594168Y-124497721D01*
X112560639Y-124547903D01*
X112480735Y-124740808D01*
X112480733Y-124740816D01*
X112440000Y-124945594D01*
X112060500Y-124945594D01*
X112060500Y-124945550D01*
X112060500Y-124945547D01*
X112024191Y-124763015D01*
X112019745Y-124740664D01*
X111939902Y-124547903D01*
X111939806Y-124547671D01*
X111939799Y-124547658D01*
X111823744Y-124373971D01*
X111823741Y-124373967D01*
X111676032Y-124226258D01*
X111676028Y-124226255D01*
X111502341Y-124110200D01*
X111502328Y-124110193D01*
X111309337Y-124030255D01*
X111309329Y-124030253D01*
X111104452Y-123989500D01*
X111104450Y-123989500D01*
X110895550Y-123989500D01*
X110895548Y-123989500D01*
X110690670Y-124030253D01*
X110690662Y-124030255D01*
X110497671Y-124110193D01*
X110497658Y-124110200D01*
X110323971Y-124226255D01*
X110323967Y-124226258D01*
X110176258Y-124373967D01*
X110176255Y-124373971D01*
X110103102Y-124483452D01*
X110049489Y-124528257D01*
X109980164Y-124536964D01*
X109917137Y-124506809D01*
X109896898Y-124483452D01*
X109823744Y-124373971D01*
X109823741Y-124373967D01*
X109676032Y-124226258D01*
X109676028Y-124226255D01*
X109502341Y-124110200D01*
X109502328Y-124110193D01*
X109309337Y-124030255D01*
X109309329Y-124030253D01*
X109104452Y-123989500D01*
X109104450Y-123989500D01*
X108895550Y-123989500D01*
X108895548Y-123989500D01*
X108690670Y-124030253D01*
X108690662Y-124030255D01*
X108497671Y-124110193D01*
X108497658Y-124110200D01*
X108323971Y-124226255D01*
X108323967Y-124226258D01*
X108176258Y-124373967D01*
X108176255Y-124373971D01*
X108060200Y-124547658D01*
X108060193Y-124547671D01*
X107980255Y-124740662D01*
X107980253Y-124740670D01*
X107939500Y-124945547D01*
X107939500Y-124945550D01*
X107939500Y-125154450D01*
X107939500Y-125154452D01*
X107939499Y-125154452D01*
X107560500Y-125154452D01*
X107560500Y-125154450D01*
X107560500Y-124945550D01*
X107560500Y-124945547D01*
X107524191Y-124763015D01*
X107519745Y-124740664D01*
X107439902Y-124547903D01*
X107439806Y-124547671D01*
X107439799Y-124547658D01*
X107323744Y-124373971D01*
X107323741Y-124373967D01*
X107176032Y-124226258D01*
X107176028Y-124226255D01*
X107002341Y-124110200D01*
X107002332Y-124110195D01*
X106937608Y-124083386D01*
X106883205Y-124039545D01*
X106861140Y-123973251D01*
X106878419Y-123905552D01*
X106897376Y-123881148D01*
X110440510Y-120338015D01*
X110512984Y-120212485D01*
X110524578Y-120169215D01*
X110550500Y-120072475D01*
X110550500Y-120028387D01*
X110570185Y-119961348D01*
X110622989Y-119915593D01*
X110692147Y-119905649D01*
X110755703Y-119934674D01*
X110762181Y-119940706D01*
X114761985Y-123940510D01*
X114761986Y-123940511D01*
X114761988Y-123940512D01*
X114786997Y-123954950D01*
X114865892Y-124000500D01*
X114887515Y-124012984D01*
X115027525Y-124050500D01*
X125700364Y-124050500D01*
X125767403Y-124070185D01*
X125813158Y-124122989D01*
X125823102Y-124192147D01*
X125794077Y-124255703D01*
X125788045Y-124262181D01*
X125676258Y-124373967D01*
X125676255Y-124373971D01*
X125560200Y-124547658D01*
X125560193Y-124547671D01*
X125480255Y-124740662D01*
X125480253Y-124740670D01*
X125439500Y-124945547D01*
X125439500Y-124945550D01*
X125439500Y-125154450D01*
X125439500Y-125154452D01*
X125439499Y-125154452D01*
X125480253Y-125359329D01*
X125480255Y-125359337D01*
X125560193Y-125552328D01*
X125560200Y-125552341D01*
X125676255Y-125726028D01*
X125676258Y-125726032D01*
X125823967Y-125873741D01*
X125823971Y-125873744D01*
X125997658Y-125989799D01*
X125997671Y-125989806D01*
X126124364Y-126042283D01*
X126190664Y-126069745D01*
X126240834Y-126079724D01*
X126395547Y-126110500D01*
X126395550Y-126110500D01*
X126604452Y-126110500D01*
X126707593Y-126089983D01*
X126809336Y-126069745D01*
X127002335Y-125989803D01*
X127002997Y-125989361D01*
X127004670Y-125988242D01*
X127176029Y-125873744D01*
X127323744Y-125726029D01*
X127439803Y-125552335D01*
X127439903Y-125552095D01*
X127470326Y-125478646D01*
X127519745Y-125359336D01*
X127560500Y-125154452D01*
X127939499Y-125154452D01*
X127980253Y-125359329D01*
X127980255Y-125359337D01*
X128060193Y-125552328D01*
X128060200Y-125552341D01*
X128176255Y-125726028D01*
X128176258Y-125726032D01*
X128323967Y-125873741D01*
X128323971Y-125873744D01*
X128497658Y-125989799D01*
X128497671Y-125989806D01*
X128624364Y-126042283D01*
X128690664Y-126069745D01*
X128740834Y-126079724D01*
X128895547Y-126110500D01*
X128895550Y-126110500D01*
X129104452Y-126110500D01*
X129207593Y-126089983D01*
X129309336Y-126069745D01*
X129502335Y-125989803D01*
X129502997Y-125989361D01*
X129504670Y-125988242D01*
X129676029Y-125873744D01*
X129823744Y-125726029D01*
X129896898Y-125616547D01*
X129950510Y-125571742D01*
X130019835Y-125563035D01*
X130082863Y-125593189D01*
X130103102Y-125616547D01*
X130176255Y-125726028D01*
X130176258Y-125726032D01*
X130323967Y-125873741D01*
X130323971Y-125873744D01*
X130497658Y-125989799D01*
X130497671Y-125989806D01*
X130624364Y-126042283D01*
X130690664Y-126069745D01*
X130740834Y-126079724D01*
X130895547Y-126110500D01*
X130895550Y-126110500D01*
X131104452Y-126110500D01*
X131207593Y-126089983D01*
X131309336Y-126069745D01*
X131502335Y-125989803D01*
X131502997Y-125989361D01*
X131504670Y-125988242D01*
X131676029Y-125873744D01*
X131699773Y-125850000D01*
X131727835Y-125821939D01*
X131823741Y-125726032D01*
X131823744Y-125726029D01*
X131939803Y-125552335D01*
X131939903Y-125552095D01*
X131970326Y-125478646D01*
X132019745Y-125359336D01*
X132060500Y-125154450D01*
X132060500Y-124945594D01*
X132440000Y-124945594D01*
X132440000Y-125154405D01*
X132480733Y-125359183D01*
X132480735Y-125359191D01*
X132560639Y-125552096D01*
X132594168Y-125602276D01*
X132594169Y-125602277D01*
X133049701Y-125146744D01*
X133071354Y-125227551D01*
X133131913Y-125332443D01*
X133217557Y-125418087D01*
X133322449Y-125478646D01*
X133403255Y-125500298D01*
X132947722Y-125955830D01*
X132947722Y-125955831D01*
X132997903Y-125989360D01*
X133190808Y-126069264D01*
X133190816Y-126069266D01*
X133395594Y-126109999D01*
X133395598Y-126110000D01*
X133604402Y-126110000D01*
X133604405Y-126109999D01*
X133809183Y-126069266D01*
X133809191Y-126069264D01*
X134002095Y-125989361D01*
X134052277Y-125955831D01*
X133596744Y-125500298D01*
X133677551Y-125478646D01*
X133782443Y-125418087D01*
X133868087Y-125332443D01*
X133928646Y-125227551D01*
X133950298Y-125146744D01*
X134405831Y-125602277D01*
X134439361Y-125552095D01*
X134519264Y-125359191D01*
X134519266Y-125359183D01*
X134559999Y-125154405D01*
X134560000Y-125154402D01*
X134560000Y-124945598D01*
X134559999Y-124945594D01*
X134519266Y-124740816D01*
X134519264Y-124740808D01*
X134439360Y-124547903D01*
X134405830Y-124497722D01*
X133950297Y-124953254D01*
X133928646Y-124872449D01*
X133868087Y-124767557D01*
X133782443Y-124681913D01*
X133677551Y-124621354D01*
X133596744Y-124599701D01*
X134052277Y-124144169D01*
X134052276Y-124144168D01*
X134002096Y-124110639D01*
X133809191Y-124030735D01*
X133809183Y-124030733D01*
X133604405Y-123990000D01*
X133395594Y-123990000D01*
X133190816Y-124030733D01*
X133190808Y-124030735D01*
X132997903Y-124110639D01*
X132947721Y-124144168D01*
X133403255Y-124599701D01*
X133322449Y-124621354D01*
X133217557Y-124681913D01*
X133131913Y-124767557D01*
X133071354Y-124872449D01*
X133049702Y-124953255D01*
X132594168Y-124497721D01*
X132560639Y-124547903D01*
X132480735Y-124740808D01*
X132480733Y-124740816D01*
X132440000Y-124945594D01*
X132060500Y-124945594D01*
X132060500Y-124945550D01*
X132060500Y-124945547D01*
X132024191Y-124763015D01*
X132019745Y-124740664D01*
X131939902Y-124547903D01*
X131939806Y-124547671D01*
X131939799Y-124547658D01*
X131823744Y-124373971D01*
X131823741Y-124373967D01*
X131676032Y-124226258D01*
X131676028Y-124226255D01*
X131502341Y-124110200D01*
X131502328Y-124110193D01*
X131309337Y-124030255D01*
X131309329Y-124030253D01*
X131104452Y-123989500D01*
X131104450Y-123989500D01*
X130895550Y-123989500D01*
X130895548Y-123989500D01*
X130690670Y-124030253D01*
X130690662Y-124030255D01*
X130497671Y-124110193D01*
X130497658Y-124110200D01*
X130323971Y-124226255D01*
X130323967Y-124226258D01*
X130176258Y-124373967D01*
X130176255Y-124373971D01*
X130103102Y-124483452D01*
X130049489Y-124528257D01*
X129980164Y-124536964D01*
X129917137Y-124506809D01*
X129896898Y-124483452D01*
X129823744Y-124373971D01*
X129823741Y-124373967D01*
X129676032Y-124226258D01*
X129676028Y-124226255D01*
X129502341Y-124110200D01*
X129502328Y-124110193D01*
X129309337Y-124030255D01*
X129309329Y-124030253D01*
X129104452Y-123989500D01*
X129104450Y-123989500D01*
X128895550Y-123989500D01*
X128895548Y-123989500D01*
X128690670Y-124030253D01*
X128690662Y-124030255D01*
X128497671Y-124110193D01*
X128497658Y-124110200D01*
X128323971Y-124226255D01*
X128323967Y-124226258D01*
X128176258Y-124373967D01*
X128176255Y-124373971D01*
X128060200Y-124547658D01*
X128060193Y-124547671D01*
X127980255Y-124740662D01*
X127980253Y-124740670D01*
X127939500Y-124945547D01*
X127939500Y-124945550D01*
X127939500Y-125154450D01*
X127939500Y-125154452D01*
X127939499Y-125154452D01*
X127560500Y-125154452D01*
X127560500Y-125154450D01*
X127560500Y-124945550D01*
X127560500Y-124945547D01*
X127524191Y-124763015D01*
X127519745Y-124740664D01*
X127439902Y-124547903D01*
X127439806Y-124547671D01*
X127439799Y-124547658D01*
X127323744Y-124373971D01*
X127323741Y-124373967D01*
X127176032Y-124226258D01*
X127176028Y-124226255D01*
X127002341Y-124110200D01*
X127002332Y-124110195D01*
X126937608Y-124083386D01*
X126883205Y-124039545D01*
X126861140Y-123973251D01*
X126878419Y-123905552D01*
X126897376Y-123881148D01*
X130440510Y-120338015D01*
X130512984Y-120212485D01*
X130524578Y-120169215D01*
X130550500Y-120072475D01*
X130550500Y-120028387D01*
X130570185Y-119961348D01*
X130622989Y-119915593D01*
X130692147Y-119905649D01*
X130755703Y-119934674D01*
X130762181Y-119940706D01*
X134761985Y-123940510D01*
X134761986Y-123940511D01*
X134761988Y-123940512D01*
X134786997Y-123954950D01*
X134865892Y-124000500D01*
X134887515Y-124012984D01*
X135027525Y-124050500D01*
X145700364Y-124050500D01*
X145767403Y-124070185D01*
X145813158Y-124122989D01*
X145823102Y-124192147D01*
X145794077Y-124255703D01*
X145788045Y-124262181D01*
X145676258Y-124373967D01*
X145676255Y-124373971D01*
X145560200Y-124547658D01*
X145560193Y-124547671D01*
X145480255Y-124740662D01*
X145480253Y-124740670D01*
X145439500Y-124945547D01*
X145439500Y-124945550D01*
X145439500Y-125154450D01*
X145439500Y-125154452D01*
X145439499Y-125154452D01*
X145480253Y-125359329D01*
X145480255Y-125359337D01*
X145560193Y-125552328D01*
X145560200Y-125552341D01*
X145676255Y-125726028D01*
X145676258Y-125726032D01*
X145823967Y-125873741D01*
X145823971Y-125873744D01*
X145997658Y-125989799D01*
X145997671Y-125989806D01*
X146124364Y-126042283D01*
X146190664Y-126069745D01*
X146240834Y-126079724D01*
X146395547Y-126110500D01*
X146395550Y-126110500D01*
X146604452Y-126110500D01*
X146707593Y-126089983D01*
X146809336Y-126069745D01*
X147002335Y-125989803D01*
X147002997Y-125989361D01*
X147004670Y-125988242D01*
X147176029Y-125873744D01*
X147323744Y-125726029D01*
X147439803Y-125552335D01*
X147439903Y-125552095D01*
X147470326Y-125478646D01*
X147519745Y-125359336D01*
X147560500Y-125154452D01*
X147939499Y-125154452D01*
X147980253Y-125359329D01*
X147980255Y-125359337D01*
X148060193Y-125552328D01*
X148060200Y-125552341D01*
X148176255Y-125726028D01*
X148176258Y-125726032D01*
X148323967Y-125873741D01*
X148323971Y-125873744D01*
X148497658Y-125989799D01*
X148497671Y-125989806D01*
X148624364Y-126042283D01*
X148690664Y-126069745D01*
X148740834Y-126079724D01*
X148895547Y-126110500D01*
X148895550Y-126110500D01*
X149104452Y-126110500D01*
X149207593Y-126089983D01*
X149309336Y-126069745D01*
X149502335Y-125989803D01*
X149502997Y-125989361D01*
X149504670Y-125988242D01*
X149676029Y-125873744D01*
X149823744Y-125726029D01*
X149896898Y-125616547D01*
X149950510Y-125571742D01*
X150019835Y-125563035D01*
X150082863Y-125593189D01*
X150103102Y-125616547D01*
X150176255Y-125726028D01*
X150176258Y-125726032D01*
X150323967Y-125873741D01*
X150323971Y-125873744D01*
X150497658Y-125989799D01*
X150497671Y-125989806D01*
X150624364Y-126042283D01*
X150690664Y-126069745D01*
X150740834Y-126079724D01*
X150895547Y-126110500D01*
X150895550Y-126110500D01*
X151104452Y-126110500D01*
X151207593Y-126089983D01*
X151309336Y-126069745D01*
X151502335Y-125989803D01*
X151502997Y-125989361D01*
X151504670Y-125988242D01*
X151676029Y-125873744D01*
X151699773Y-125850000D01*
X151727835Y-125821939D01*
X151823741Y-125726032D01*
X151823744Y-125726029D01*
X151939803Y-125552335D01*
X151939903Y-125552095D01*
X151970326Y-125478646D01*
X152019745Y-125359336D01*
X152060500Y-125154450D01*
X152060500Y-124945594D01*
X152440000Y-124945594D01*
X152440000Y-125154405D01*
X152480733Y-125359183D01*
X152480735Y-125359191D01*
X152560639Y-125552096D01*
X152594168Y-125602276D01*
X152594169Y-125602277D01*
X153049701Y-125146744D01*
X153071354Y-125227551D01*
X153131913Y-125332443D01*
X153217557Y-125418087D01*
X153322449Y-125478646D01*
X153403255Y-125500298D01*
X152947722Y-125955830D01*
X152947722Y-125955831D01*
X152997903Y-125989360D01*
X153190808Y-126069264D01*
X153190816Y-126069266D01*
X153395594Y-126109999D01*
X153395598Y-126110000D01*
X153604402Y-126110000D01*
X153604405Y-126109999D01*
X153809183Y-126069266D01*
X153809191Y-126069264D01*
X154002095Y-125989361D01*
X154052277Y-125955831D01*
X153596744Y-125500298D01*
X153677551Y-125478646D01*
X153782443Y-125418087D01*
X153868087Y-125332443D01*
X153928646Y-125227551D01*
X153950298Y-125146744D01*
X154405831Y-125602277D01*
X154439361Y-125552095D01*
X154519264Y-125359191D01*
X154519266Y-125359183D01*
X154559999Y-125154405D01*
X154560000Y-125154402D01*
X154560000Y-124945598D01*
X154559999Y-124945594D01*
X154519266Y-124740816D01*
X154519264Y-124740808D01*
X154439360Y-124547903D01*
X154405830Y-124497722D01*
X153950297Y-124953254D01*
X153928646Y-124872449D01*
X153868087Y-124767557D01*
X153782443Y-124681913D01*
X153677551Y-124621354D01*
X153596744Y-124599701D01*
X154052277Y-124144169D01*
X154052276Y-124144168D01*
X154002096Y-124110639D01*
X153809191Y-124030735D01*
X153809183Y-124030733D01*
X153604405Y-123990000D01*
X153395594Y-123990000D01*
X153190816Y-124030733D01*
X153190808Y-124030735D01*
X152997903Y-124110639D01*
X152947721Y-124144168D01*
X153403255Y-124599701D01*
X153322449Y-124621354D01*
X153217557Y-124681913D01*
X153131913Y-124767557D01*
X153071354Y-124872449D01*
X153049702Y-124953255D01*
X152594168Y-124497721D01*
X152560639Y-124547903D01*
X152480735Y-124740808D01*
X152480733Y-124740816D01*
X152440000Y-124945594D01*
X152060500Y-124945594D01*
X152060500Y-124945550D01*
X152060500Y-124945547D01*
X152024191Y-124763015D01*
X152019745Y-124740664D01*
X151939902Y-124547903D01*
X151939806Y-124547671D01*
X151939799Y-124547658D01*
X151823744Y-124373971D01*
X151823741Y-124373967D01*
X151676032Y-124226258D01*
X151676028Y-124226255D01*
X151502341Y-124110200D01*
X151502328Y-124110193D01*
X151309337Y-124030255D01*
X151309329Y-124030253D01*
X151104452Y-123989500D01*
X151104450Y-123989500D01*
X150895550Y-123989500D01*
X150895548Y-123989500D01*
X150690670Y-124030253D01*
X150690662Y-124030255D01*
X150497671Y-124110193D01*
X150497658Y-124110200D01*
X150323971Y-124226255D01*
X150323967Y-124226258D01*
X150176258Y-124373967D01*
X150176255Y-124373971D01*
X150103102Y-124483452D01*
X150049489Y-124528257D01*
X149980164Y-124536964D01*
X149917137Y-124506809D01*
X149896898Y-124483452D01*
X149823744Y-124373971D01*
X149823741Y-124373967D01*
X149676032Y-124226258D01*
X149676028Y-124226255D01*
X149502341Y-124110200D01*
X149502328Y-124110193D01*
X149309337Y-124030255D01*
X149309329Y-124030253D01*
X149104452Y-123989500D01*
X149104450Y-123989500D01*
X148895550Y-123989500D01*
X148895548Y-123989500D01*
X148690670Y-124030253D01*
X148690662Y-124030255D01*
X148497671Y-124110193D01*
X148497658Y-124110200D01*
X148323971Y-124226255D01*
X148323967Y-124226258D01*
X148176258Y-124373967D01*
X148176255Y-124373971D01*
X148060200Y-124547658D01*
X148060193Y-124547671D01*
X147980255Y-124740662D01*
X147980253Y-124740670D01*
X147939500Y-124945547D01*
X147939500Y-124945550D01*
X147939500Y-125154450D01*
X147939500Y-125154452D01*
X147939499Y-125154452D01*
X147560500Y-125154452D01*
X147560500Y-125154450D01*
X147560500Y-124945550D01*
X147560500Y-124945547D01*
X147524191Y-124763015D01*
X147519745Y-124740664D01*
X147439902Y-124547903D01*
X147439806Y-124547671D01*
X147439799Y-124547658D01*
X147323744Y-124373971D01*
X147323741Y-124373967D01*
X147176032Y-124226258D01*
X147176028Y-124226255D01*
X147002341Y-124110200D01*
X147002332Y-124110195D01*
X146937608Y-124083386D01*
X146883205Y-124039545D01*
X146861140Y-123973251D01*
X146878419Y-123905552D01*
X146897376Y-123881148D01*
X150440510Y-120338015D01*
X150512984Y-120212485D01*
X150524578Y-120169215D01*
X150550500Y-120072475D01*
X150550500Y-120028387D01*
X150570185Y-119961348D01*
X150622989Y-119915593D01*
X150692147Y-119905649D01*
X150755703Y-119934674D01*
X150762181Y-119940706D01*
X155686985Y-124865510D01*
X155790892Y-124925500D01*
X155812515Y-124937984D01*
X155952525Y-124975500D01*
X155952526Y-124975500D01*
X155952528Y-124975500D01*
X171447472Y-124975500D01*
X171447474Y-124975500D01*
X171447475Y-124975500D01*
X171587485Y-124937984D01*
X171609108Y-124925500D01*
X171713015Y-124865510D01*
X171815510Y-124763015D01*
X171887984Y-124637485D01*
X171925500Y-124497474D01*
X171925500Y-124352526D01*
X171887984Y-124212515D01*
X171815510Y-124086985D01*
X168586819Y-120858294D01*
X168553334Y-120796971D01*
X168550500Y-120770613D01*
X168550500Y-112177527D01*
X168550500Y-112177525D01*
X168512984Y-112037515D01*
X168440510Y-111911985D01*
X164069408Y-107540883D01*
X164035923Y-107479560D01*
X164035472Y-107429014D01*
X164050500Y-107353465D01*
X164050500Y-107146535D01*
X164010130Y-106943580D01*
X163930941Y-106752402D01*
X163815977Y-106580345D01*
X163815975Y-106580342D01*
X163669657Y-106434024D01*
X163545967Y-106351378D01*
X163497598Y-106319059D01*
X163462080Y-106304347D01*
X163306420Y-106239870D01*
X163306412Y-106239868D01*
X163103469Y-106199500D01*
X163103465Y-106199500D01*
X162896535Y-106199500D01*
X162896530Y-106199500D01*
X162693587Y-106239868D01*
X162693579Y-106239870D01*
X162502403Y-106319058D01*
X162330342Y-106434024D01*
X162184025Y-106580341D01*
X162184019Y-106580349D01*
X162103102Y-106701451D01*
X162049490Y-106746257D01*
X161980165Y-106754964D01*
X161917138Y-106724810D01*
X161896898Y-106701451D01*
X161815980Y-106580349D01*
X161815974Y-106580341D01*
X161669657Y-106434024D01*
X161545967Y-106351378D01*
X161497598Y-106319059D01*
X161462080Y-106304347D01*
X161306420Y-106239870D01*
X161306412Y-106239868D01*
X161103469Y-106199500D01*
X161103465Y-106199500D01*
X160896535Y-106199500D01*
X160896530Y-106199500D01*
X160693587Y-106239868D01*
X160693579Y-106239870D01*
X160502403Y-106319058D01*
X160330342Y-106434024D01*
X160184025Y-106580341D01*
X160184022Y-106580345D01*
X160102800Y-106701902D01*
X160049187Y-106746707D01*
X159979862Y-106755414D01*
X159916835Y-106725259D01*
X159899276Y-106704996D01*
X159898620Y-106704931D01*
X159442147Y-107161405D01*
X159419344Y-107076302D01*
X159360099Y-106973686D01*
X159276314Y-106889901D01*
X159173698Y-106830656D01*
X159088594Y-106807852D01*
X159545067Y-106351378D01*
X159545067Y-106351377D01*
X159497359Y-106319500D01*
X159306274Y-106240350D01*
X159306266Y-106240348D01*
X159103420Y-106200000D01*
X158896579Y-106200000D01*
X158693733Y-106240348D01*
X158693725Y-106240350D01*
X158502641Y-106319500D01*
X158502631Y-106319505D01*
X158454932Y-106351377D01*
X158454932Y-106351378D01*
X158911406Y-106807852D01*
X158826302Y-106830656D01*
X158723686Y-106889901D01*
X158639901Y-106973686D01*
X158580656Y-107076302D01*
X158557852Y-107161406D01*
X158101378Y-106704932D01*
X158101377Y-106704932D01*
X158069505Y-106752631D01*
X158069500Y-106752641D01*
X157990350Y-106943725D01*
X157990348Y-106943733D01*
X157950000Y-107146579D01*
X157950000Y-107353420D01*
X157990348Y-107556266D01*
X157990350Y-107556274D01*
X158069500Y-107747359D01*
X158101377Y-107795067D01*
X158101378Y-107795067D01*
X158557852Y-107338593D01*
X158580656Y-107423698D01*
X158639901Y-107526314D01*
X158723686Y-107610099D01*
X158826302Y-107669344D01*
X158911405Y-107692147D01*
X158454931Y-108148620D01*
X158454932Y-108148621D01*
X158502633Y-108180495D01*
X158502639Y-108180498D01*
X158693725Y-108259649D01*
X158693733Y-108259651D01*
X158896579Y-108299999D01*
X158896583Y-108300000D01*
X159013534Y-108300000D01*
X159080573Y-108319685D01*
X159126328Y-108372489D01*
X159136272Y-108441647D01*
X159107247Y-108505203D01*
X159101215Y-108511681D01*
X158499716Y-109113181D01*
X158438393Y-109146666D01*
X158412035Y-109149500D01*
X148353936Y-109149500D01*
X148291936Y-109132887D01*
X148212485Y-109087016D01*
X148072475Y-109049500D01*
X147927525Y-109049500D01*
X147798993Y-109083940D01*
X147787511Y-109087017D01*
X147661988Y-109159488D01*
X147661982Y-109159493D01*
X147559493Y-109261982D01*
X147559488Y-109261988D01*
X147487017Y-109387511D01*
X147487016Y-109387515D01*
X147449500Y-109527525D01*
X147449500Y-109672475D01*
X147479044Y-109782733D01*
X147487017Y-109812488D01*
X147559488Y-109938011D01*
X147559490Y-109938013D01*
X147559491Y-109938015D01*
X147661985Y-110040509D01*
X147661986Y-110040510D01*
X147661988Y-110040511D01*
X147787511Y-110112982D01*
X147787512Y-110112982D01*
X147787515Y-110112984D01*
X147927525Y-110150500D01*
X147927528Y-110150500D01*
X148072472Y-110150500D01*
X148072475Y-110150500D01*
X148212485Y-110112984D01*
X148291936Y-110067112D01*
X148353936Y-110050500D01*
X158709308Y-110050500D01*
X158709309Y-110050500D01*
X158799673Y-110026286D01*
X158823887Y-110019799D01*
X158926614Y-109960489D01*
X160591158Y-108295943D01*
X160652479Y-108262460D01*
X160703026Y-108262009D01*
X160896533Y-108300499D01*
X160896534Y-108300500D01*
X160896535Y-108300500D01*
X161103466Y-108300500D01*
X161103467Y-108300499D01*
X161306420Y-108260130D01*
X161497598Y-108180941D01*
X161669655Y-108065977D01*
X161815977Y-107919655D01*
X161896898Y-107798546D01*
X161950509Y-107753742D01*
X162019834Y-107745035D01*
X162082862Y-107775189D01*
X162103100Y-107798545D01*
X162152924Y-107873112D01*
X162184024Y-107919657D01*
X162330342Y-108065975D01*
X162330345Y-108065977D01*
X162502402Y-108180941D01*
X162693580Y-108260130D01*
X162894016Y-108299999D01*
X162896530Y-108300499D01*
X162896534Y-108300500D01*
X162896535Y-108300500D01*
X163103465Y-108300500D01*
X163179012Y-108285472D01*
X163248600Y-108291698D01*
X163290883Y-108319408D01*
X167413181Y-112441706D01*
X167446666Y-112503029D01*
X167449500Y-112529387D01*
X167449500Y-119077525D01*
X167449500Y-120977526D01*
X167449500Y-121122474D01*
X167487016Y-121262485D01*
X167559489Y-121388013D01*
X167559491Y-121388016D01*
X169834294Y-123662819D01*
X169867779Y-123724142D01*
X169862795Y-123793834D01*
X169820923Y-123849767D01*
X169755459Y-123874184D01*
X169746613Y-123874500D01*
X156304387Y-123874500D01*
X156237348Y-123854815D01*
X156216706Y-123838181D01*
X154007509Y-121628984D01*
X153974024Y-121567661D01*
X153979008Y-121497969D01*
X154020880Y-121442036D01*
X154086344Y-121417619D01*
X154154617Y-121432471D01*
X154172502Y-121444355D01*
X154231982Y-121491789D01*
X154522090Y-121674076D01*
X154830785Y-121822736D01*
X155154183Y-121935897D01*
X155488217Y-122012139D01*
X155488226Y-122012140D01*
X155488231Y-122012141D01*
X155715197Y-122037713D01*
X155828682Y-122050499D01*
X155828685Y-122050500D01*
X155828688Y-122050500D01*
X156171315Y-122050500D01*
X156171316Y-122050499D01*
X156345311Y-122030895D01*
X156511768Y-122012141D01*
X156511771Y-122012140D01*
X156511783Y-122012139D01*
X156845817Y-121935897D01*
X157169215Y-121822736D01*
X157477910Y-121674076D01*
X157768018Y-121491789D01*
X158035893Y-121278166D01*
X158278166Y-121035893D01*
X158491789Y-120768018D01*
X158674076Y-120477910D01*
X158822736Y-120169215D01*
X158935897Y-119845817D01*
X159012139Y-119511783D01*
X159050500Y-119171312D01*
X159050500Y-118828688D01*
X159012139Y-118488217D01*
X158935897Y-118154183D01*
X158822736Y-117830785D01*
X158674076Y-117522090D01*
X158491789Y-117231982D01*
X158278166Y-116964107D01*
X158035893Y-116721834D01*
X157768018Y-116508211D01*
X157477910Y-116325924D01*
X157477907Y-116325922D01*
X157169216Y-116177264D01*
X156845818Y-116064103D01*
X156845816Y-116064102D01*
X156588024Y-116005262D01*
X156511783Y-115987861D01*
X156511780Y-115987860D01*
X156511768Y-115987858D01*
X156171318Y-115949500D01*
X156171312Y-115949500D01*
X155828688Y-115949500D01*
X155828681Y-115949500D01*
X155488231Y-115987858D01*
X155488217Y-115987861D01*
X155154183Y-116064102D01*
X155154181Y-116064103D01*
X154830783Y-116177264D01*
X154522092Y-116325922D01*
X154231983Y-116508210D01*
X153964107Y-116721833D01*
X153721833Y-116964107D01*
X153508210Y-117231983D01*
X153325922Y-117522092D01*
X153177264Y-117830783D01*
X153064103Y-118154181D01*
X153064102Y-118154183D01*
X152987861Y-118488217D01*
X152987858Y-118488231D01*
X152949500Y-118828681D01*
X152949500Y-119171318D01*
X152987858Y-119511768D01*
X152987861Y-119511782D01*
X153064102Y-119845816D01*
X153064103Y-119845818D01*
X153177264Y-120169215D01*
X153325922Y-120477907D01*
X153508212Y-120768020D01*
X153508213Y-120768022D01*
X153555643Y-120827497D01*
X153582052Y-120892183D01*
X153569295Y-120960879D01*
X153521425Y-121011772D01*
X153453638Y-121028706D01*
X153387457Y-121006303D01*
X153371015Y-120992490D01*
X150338016Y-117959491D01*
X150338015Y-117959490D01*
X150212485Y-117887016D01*
X150212486Y-117887016D01*
X150177482Y-117877637D01*
X150072475Y-117849500D01*
X149927525Y-117849500D01*
X149822517Y-117877637D01*
X149787514Y-117887016D01*
X149661986Y-117959489D01*
X149661983Y-117959491D01*
X149559489Y-118061985D01*
X149532875Y-118108084D01*
X149506260Y-118154183D01*
X149487016Y-118187515D01*
X149449500Y-118327525D01*
X149449500Y-118327527D01*
X149449500Y-119720613D01*
X149429815Y-119787652D01*
X149413181Y-119808294D01*
X146308294Y-122913181D01*
X146246971Y-122946666D01*
X146220613Y-122949500D01*
X135379387Y-122949500D01*
X135312348Y-122929815D01*
X135291706Y-122913181D01*
X130586819Y-118208294D01*
X130553334Y-118146971D01*
X130550500Y-118120613D01*
X130550500Y-115579387D01*
X130570185Y-115512348D01*
X130586819Y-115491706D01*
X134742239Y-111336286D01*
X138979765Y-111336286D01*
X139077593Y-111362500D01*
X139222407Y-111362500D01*
X139320234Y-111336286D01*
X140179765Y-111336286D01*
X140277593Y-111362500D01*
X140422407Y-111362500D01*
X140520234Y-111336286D01*
X140350001Y-111166053D01*
X140179765Y-111336286D01*
X139320234Y-111336286D01*
X139150001Y-111166053D01*
X138979765Y-111336286D01*
X134742239Y-111336286D01*
X135338434Y-110740091D01*
X138600000Y-110740091D01*
X138600000Y-110884908D01*
X138626211Y-110982734D01*
X138796446Y-110812500D01*
X138766609Y-110782663D01*
X139000000Y-110782663D01*
X139000000Y-110842337D01*
X139022836Y-110897468D01*
X139065032Y-110939664D01*
X139120163Y-110962500D01*
X139179837Y-110962500D01*
X139234968Y-110939664D01*
X139277164Y-110897468D01*
X139300000Y-110842337D01*
X139300000Y-110812500D01*
X139503553Y-110812500D01*
X139503553Y-110812501D01*
X139673785Y-110982733D01*
X139717905Y-110970912D01*
X139782093Y-110970912D01*
X139826212Y-110982733D01*
X139996446Y-110812500D01*
X139966609Y-110782663D01*
X140200000Y-110782663D01*
X140200000Y-110842337D01*
X140222836Y-110897468D01*
X140265032Y-110939664D01*
X140320163Y-110962500D01*
X140379837Y-110962500D01*
X140434968Y-110939664D01*
X140477164Y-110897468D01*
X140500000Y-110842337D01*
X140500000Y-110812500D01*
X140703553Y-110812500D01*
X140703553Y-110812501D01*
X140873786Y-110982734D01*
X140900000Y-110884907D01*
X140900000Y-110740092D01*
X140873786Y-110642265D01*
X140703553Y-110812500D01*
X140500000Y-110812500D01*
X140500000Y-110782663D01*
X140477164Y-110727532D01*
X140434968Y-110685336D01*
X140379837Y-110662500D01*
X140320163Y-110662500D01*
X140265032Y-110685336D01*
X140222836Y-110727532D01*
X140200000Y-110782663D01*
X139966609Y-110782663D01*
X139826211Y-110642264D01*
X139782093Y-110654086D01*
X139717908Y-110654086D01*
X139673787Y-110642264D01*
X139503553Y-110812500D01*
X139300000Y-110812500D01*
X139300000Y-110782663D01*
X139277164Y-110727532D01*
X139234968Y-110685336D01*
X139179837Y-110662500D01*
X139120163Y-110662500D01*
X139065032Y-110685336D01*
X139022836Y-110727532D01*
X139000000Y-110782663D01*
X138766609Y-110782663D01*
X138626212Y-110642265D01*
X138600000Y-110740091D01*
X135338434Y-110740091D01*
X135942238Y-110136287D01*
X138979764Y-110136287D01*
X138991586Y-110180408D01*
X138991586Y-110244593D01*
X138979764Y-110288711D01*
X139150000Y-110458946D01*
X139320233Y-110288712D01*
X139308412Y-110244593D01*
X139308412Y-110228557D01*
X139304222Y-110215450D01*
X139308412Y-110180405D01*
X139320232Y-110136287D01*
X140179764Y-110136287D01*
X140191586Y-110180408D01*
X140191586Y-110244593D01*
X140179764Y-110288711D01*
X140350000Y-110458946D01*
X140520233Y-110288712D01*
X140508412Y-110244593D01*
X140508412Y-110180405D01*
X140520233Y-110136285D01*
X140350001Y-109966053D01*
X140179764Y-110136287D01*
X139320232Y-110136287D01*
X139320233Y-110136285D01*
X139150001Y-109966053D01*
X138979764Y-110136287D01*
X135942238Y-110136287D01*
X136538434Y-109540091D01*
X138600000Y-109540091D01*
X138600000Y-109684908D01*
X138626211Y-109782734D01*
X138796446Y-109612500D01*
X138766609Y-109582663D01*
X139000000Y-109582663D01*
X139000000Y-109642337D01*
X139022836Y-109697468D01*
X139065032Y-109739664D01*
X139120163Y-109762500D01*
X139179837Y-109762500D01*
X139234968Y-109739664D01*
X139277164Y-109697468D01*
X139300000Y-109642337D01*
X139300000Y-109612500D01*
X139503553Y-109612500D01*
X139503553Y-109612501D01*
X139673785Y-109782733D01*
X139717905Y-109770912D01*
X139782093Y-109770912D01*
X139826212Y-109782733D01*
X139996446Y-109612500D01*
X139966609Y-109582663D01*
X140200000Y-109582663D01*
X140200000Y-109642337D01*
X140222836Y-109697468D01*
X140265032Y-109739664D01*
X140320163Y-109762500D01*
X140379837Y-109762500D01*
X140434968Y-109739664D01*
X140477164Y-109697468D01*
X140500000Y-109642337D01*
X140500000Y-109612500D01*
X140703553Y-109612500D01*
X140703553Y-109612501D01*
X140873786Y-109782734D01*
X140900000Y-109684907D01*
X140900000Y-109540092D01*
X140873786Y-109442265D01*
X140703553Y-109612500D01*
X140500000Y-109612500D01*
X140500000Y-109582663D01*
X140477164Y-109527532D01*
X140434968Y-109485336D01*
X140379837Y-109462500D01*
X140320163Y-109462500D01*
X140265032Y-109485336D01*
X140222836Y-109527532D01*
X140200000Y-109582663D01*
X139966609Y-109582663D01*
X139826211Y-109442264D01*
X139782093Y-109454086D01*
X139717908Y-109454086D01*
X139673787Y-109442264D01*
X139503553Y-109612500D01*
X139300000Y-109612500D01*
X139300000Y-109582663D01*
X139277164Y-109527532D01*
X139234968Y-109485336D01*
X139179837Y-109462500D01*
X139120163Y-109462500D01*
X139065032Y-109485336D01*
X139022836Y-109527532D01*
X139000000Y-109582663D01*
X138766609Y-109582663D01*
X138626212Y-109442265D01*
X138600000Y-109540091D01*
X136538434Y-109540091D01*
X136989813Y-109088712D01*
X138979765Y-109088712D01*
X139150000Y-109258946D01*
X139320233Y-109088712D01*
X140179765Y-109088712D01*
X140350000Y-109258946D01*
X140520234Y-109088711D01*
X140422408Y-109062500D01*
X140277591Y-109062500D01*
X140179765Y-109088712D01*
X139320233Y-109088712D01*
X139320234Y-109088711D01*
X139222408Y-109062500D01*
X139077591Y-109062500D01*
X138979765Y-109088712D01*
X136989813Y-109088712D01*
X139768617Y-106309908D01*
X141016025Y-105062500D01*
X142249844Y-103828681D01*
X167949500Y-103828681D01*
X167949500Y-104171318D01*
X167987858Y-104511768D01*
X167987860Y-104511780D01*
X167987861Y-104511783D01*
X167999437Y-104562501D01*
X168064102Y-104845816D01*
X168064103Y-104845818D01*
X168177264Y-105169216D01*
X168325922Y-105477907D01*
X168325924Y-105477910D01*
X168508211Y-105768018D01*
X168721834Y-106035893D01*
X168964107Y-106278166D01*
X169231982Y-106491789D01*
X169522090Y-106674076D01*
X169830785Y-106822736D01*
X170154183Y-106935897D01*
X170488217Y-107012139D01*
X170488226Y-107012140D01*
X170488231Y-107012141D01*
X170715197Y-107037713D01*
X170828682Y-107050499D01*
X170828685Y-107050500D01*
X170828688Y-107050500D01*
X171171315Y-107050500D01*
X171171316Y-107050499D01*
X171345311Y-107030895D01*
X171511768Y-107012141D01*
X171511771Y-107012140D01*
X171511783Y-107012139D01*
X171845817Y-106935897D01*
X172169215Y-106822736D01*
X172477910Y-106674076D01*
X172768018Y-106491789D01*
X173035893Y-106278166D01*
X173278166Y-106035893D01*
X173491789Y-105768018D01*
X173674076Y-105477910D01*
X173822736Y-105169215D01*
X173935897Y-104845817D01*
X174012139Y-104511783D01*
X174050500Y-104171312D01*
X174050500Y-103828688D01*
X174028267Y-103631359D01*
X174012141Y-103488231D01*
X174012140Y-103488226D01*
X174012139Y-103488217D01*
X173935897Y-103154183D01*
X173822736Y-102830785D01*
X173674076Y-102522090D01*
X173491789Y-102231982D01*
X173278166Y-101964107D01*
X173035893Y-101721834D01*
X172768018Y-101508211D01*
X172563919Y-101379967D01*
X172477907Y-101325922D01*
X172169216Y-101177264D01*
X171845818Y-101064103D01*
X171845816Y-101064102D01*
X171588024Y-101005262D01*
X171511783Y-100987861D01*
X171511780Y-100987860D01*
X171511768Y-100987858D01*
X171171318Y-100949500D01*
X171171312Y-100949500D01*
X170828688Y-100949500D01*
X170828681Y-100949500D01*
X170488231Y-100987858D01*
X170488217Y-100987861D01*
X170154183Y-101064102D01*
X170154181Y-101064103D01*
X169830783Y-101177264D01*
X169522092Y-101325922D01*
X169231983Y-101508210D01*
X168964107Y-101721833D01*
X168721833Y-101964107D01*
X168508210Y-102231983D01*
X168325922Y-102522092D01*
X168177264Y-102830783D01*
X168064103Y-103154181D01*
X168064102Y-103154183D01*
X167987861Y-103488217D01*
X167987858Y-103488231D01*
X167949500Y-103828681D01*
X142249844Y-103828681D01*
X142340510Y-103738015D01*
X142412984Y-103612485D01*
X142450500Y-103472474D01*
X142450500Y-103327526D01*
X142412984Y-103187515D01*
X142340510Y-103061985D01*
X142238015Y-102959490D01*
X142112485Y-102887016D01*
X142112486Y-102887016D01*
X141987272Y-102853465D01*
X141972475Y-102849500D01*
X141827525Y-102849500D01*
X141827522Y-102849500D01*
X141812727Y-102853464D01*
X141812728Y-102853465D01*
X141687514Y-102887016D01*
X141561986Y-102959489D01*
X141561983Y-102959491D01*
X129808294Y-114713181D01*
X129746971Y-114746666D01*
X129720613Y-114749500D01*
X125679387Y-114749500D01*
X125612348Y-114729815D01*
X125591706Y-114713181D01*
X121438016Y-110559491D01*
X121438015Y-110559490D01*
X121312485Y-110487016D01*
X121312486Y-110487016D01*
X121277482Y-110477637D01*
X121172475Y-110449500D01*
X121027525Y-110449500D01*
X120922517Y-110477637D01*
X120887514Y-110487016D01*
X120761986Y-110559489D01*
X120761983Y-110559491D01*
X120659491Y-110661983D01*
X120659491Y-110661984D01*
X120659490Y-110661985D01*
X120628859Y-110715040D01*
X120587016Y-110787514D01*
X120587016Y-110787515D01*
X120580322Y-110812500D01*
X120562899Y-110877524D01*
X120562898Y-110877526D01*
X120549500Y-110927523D01*
X120549500Y-110927526D01*
X120549500Y-111072474D01*
X120587016Y-111212485D01*
X120659490Y-111338015D01*
X125061985Y-115740510D01*
X125187515Y-115812984D01*
X125327525Y-115850500D01*
X129325500Y-115850500D01*
X129392539Y-115870185D01*
X129438294Y-115922989D01*
X129449500Y-115974500D01*
X129449500Y-119720613D01*
X129429815Y-119787652D01*
X129413181Y-119808294D01*
X126308294Y-122913181D01*
X126246971Y-122946666D01*
X126220613Y-122949500D01*
X115379387Y-122949500D01*
X115312348Y-122929815D01*
X115291706Y-122913181D01*
X111207206Y-118828681D01*
X115949500Y-118828681D01*
X115949500Y-119171318D01*
X115987858Y-119511768D01*
X115987861Y-119511782D01*
X116064102Y-119845816D01*
X116064103Y-119845818D01*
X116177264Y-120169215D01*
X116325922Y-120477907D01*
X116325924Y-120477910D01*
X116508211Y-120768018D01*
X116555644Y-120827497D01*
X116716102Y-121028706D01*
X116721834Y-121035893D01*
X116964107Y-121278166D01*
X117231982Y-121491789D01*
X117522090Y-121674076D01*
X117830785Y-121822736D01*
X118154183Y-121935897D01*
X118488217Y-122012139D01*
X118488226Y-122012140D01*
X118488231Y-122012141D01*
X118715197Y-122037713D01*
X118828682Y-122050499D01*
X118828685Y-122050500D01*
X118828688Y-122050500D01*
X119171315Y-122050500D01*
X119171316Y-122050499D01*
X119345311Y-122030895D01*
X119511768Y-122012141D01*
X119511771Y-122012140D01*
X119511783Y-122012139D01*
X119845817Y-121935897D01*
X120169215Y-121822736D01*
X120477910Y-121674076D01*
X120768018Y-121491789D01*
X121035893Y-121278166D01*
X121278166Y-121035893D01*
X121491789Y-120768018D01*
X121674076Y-120477910D01*
X121822736Y-120169215D01*
X121935897Y-119845817D01*
X122012139Y-119511783D01*
X122050500Y-119171312D01*
X122050500Y-118828688D01*
X122012139Y-118488217D01*
X121935897Y-118154183D01*
X121822736Y-117830785D01*
X121674076Y-117522090D01*
X121491789Y-117231982D01*
X121278166Y-116964107D01*
X121035893Y-116721834D01*
X120768018Y-116508211D01*
X120477910Y-116325924D01*
X120477907Y-116325922D01*
X120169216Y-116177264D01*
X119845818Y-116064103D01*
X119845816Y-116064102D01*
X119588024Y-116005262D01*
X119511783Y-115987861D01*
X119511780Y-115987860D01*
X119511768Y-115987858D01*
X119171318Y-115949500D01*
X119171312Y-115949500D01*
X118828688Y-115949500D01*
X118828681Y-115949500D01*
X118488231Y-115987858D01*
X118488217Y-115987861D01*
X118154183Y-116064102D01*
X118154181Y-116064103D01*
X117830783Y-116177264D01*
X117522092Y-116325922D01*
X117231983Y-116508210D01*
X116964107Y-116721833D01*
X116721833Y-116964107D01*
X116508210Y-117231983D01*
X116325922Y-117522092D01*
X116177264Y-117830783D01*
X116064103Y-118154181D01*
X116064102Y-118154183D01*
X115987861Y-118488217D01*
X115987858Y-118488231D01*
X115949500Y-118828681D01*
X111207206Y-118828681D01*
X110586819Y-118208294D01*
X110553334Y-118146971D01*
X110550500Y-118120613D01*
X110550500Y-118027527D01*
X110550500Y-118027525D01*
X110512984Y-117887515D01*
X110480231Y-117830785D01*
X110440510Y-117761985D01*
X105886819Y-113208294D01*
X105853334Y-113146971D01*
X105850500Y-113120613D01*
X105850500Y-110877526D01*
X105850500Y-110877525D01*
X105812984Y-110737515D01*
X105769377Y-110661985D01*
X105740510Y-110611985D01*
X104438015Y-109309490D01*
X104312485Y-109237016D01*
X104312486Y-109237016D01*
X104277482Y-109227637D01*
X104172475Y-109199500D01*
X104027525Y-109199500D01*
X103922517Y-109227637D01*
X103887514Y-109237016D01*
X103761986Y-109309489D01*
X103761983Y-109309491D01*
X103659491Y-109411983D01*
X103659489Y-109411986D01*
X103617141Y-109485336D01*
X103592784Y-109527525D01*
X103587016Y-109537515D01*
X103549500Y-109677525D01*
X100300500Y-109677525D01*
X100300500Y-107627525D01*
X110049500Y-107627525D01*
X110049500Y-107772475D01*
X110060221Y-107812485D01*
X110081128Y-107890510D01*
X110081128Y-107890512D01*
X110087014Y-107912482D01*
X110101756Y-107938016D01*
X110159490Y-108038015D01*
X110761985Y-108640510D01*
X110887515Y-108712984D01*
X111027525Y-108750500D01*
X111027526Y-108750500D01*
X111027528Y-108750500D01*
X114872472Y-108750500D01*
X114872474Y-108750500D01*
X114872475Y-108750500D01*
X115012485Y-108712984D01*
X115138015Y-108640510D01*
X115840510Y-107938015D01*
X115912984Y-107812485D01*
X115927767Y-107757314D01*
X115950500Y-107672475D01*
X115950500Y-107527525D01*
X115912984Y-107387515D01*
X115876267Y-107323919D01*
X115840510Y-107261985D01*
X115738015Y-107159490D01*
X115612485Y-107087016D01*
X115612480Y-107087014D01*
X115571796Y-107076112D01*
X115571796Y-107076113D01*
X115522135Y-107062806D01*
X115472475Y-107049500D01*
X115327525Y-107049500D01*
X115228204Y-107076113D01*
X115228203Y-107076112D01*
X115187519Y-107087014D01*
X115187514Y-107087016D01*
X115061986Y-107159489D01*
X115061983Y-107159491D01*
X114608294Y-107613181D01*
X114546971Y-107646666D01*
X114520613Y-107649500D01*
X111379387Y-107649500D01*
X111312348Y-107629815D01*
X111291706Y-107613181D01*
X110938016Y-107259491D01*
X110938015Y-107259490D01*
X110812485Y-107187016D01*
X110812486Y-107187016D01*
X110709761Y-107159491D01*
X110709761Y-107159490D01*
X110672475Y-107149500D01*
X110527525Y-107149500D01*
X110527524Y-107149500D01*
X110490238Y-107159490D01*
X110490239Y-107159491D01*
X110387514Y-107187016D01*
X110261986Y-107259489D01*
X110261983Y-107259491D01*
X110159491Y-107361983D01*
X110159489Y-107361986D01*
X110108314Y-107450625D01*
X110101467Y-107462485D01*
X110087016Y-107487515D01*
X110049500Y-107627525D01*
X100300500Y-107627525D01*
X100300500Y-104003051D01*
X100300649Y-103996966D01*
X100308916Y-103828681D01*
X100949500Y-103828681D01*
X100949500Y-104171318D01*
X100987858Y-104511768D01*
X100987860Y-104511780D01*
X100987861Y-104511783D01*
X100999437Y-104562501D01*
X101064102Y-104845816D01*
X101064103Y-104845818D01*
X101177264Y-105169216D01*
X101325922Y-105477907D01*
X101325924Y-105477910D01*
X101508211Y-105768018D01*
X101721834Y-106035893D01*
X101964107Y-106278166D01*
X102231982Y-106491789D01*
X102522090Y-106674076D01*
X102830785Y-106822736D01*
X103154183Y-106935897D01*
X103488217Y-107012139D01*
X103488226Y-107012140D01*
X103488231Y-107012141D01*
X103715197Y-107037713D01*
X103828682Y-107050499D01*
X103828685Y-107050500D01*
X103828688Y-107050500D01*
X104171315Y-107050500D01*
X104171316Y-107050499D01*
X104345311Y-107030895D01*
X104511768Y-107012141D01*
X104511771Y-107012140D01*
X104511783Y-107012139D01*
X104845817Y-106935897D01*
X105169215Y-106822736D01*
X105477910Y-106674076D01*
X105768018Y-106491789D01*
X106035893Y-106278166D01*
X106278166Y-106035893D01*
X106491789Y-105768018D01*
X106674076Y-105477910D01*
X106674079Y-105477904D01*
X106683984Y-105457337D01*
X106683984Y-105457336D01*
X106713244Y-105396577D01*
X106822736Y-105169215D01*
X106935897Y-104845817D01*
X106951199Y-104778777D01*
X107830000Y-104778777D01*
X107830000Y-105062500D01*
X108380001Y-105062500D01*
X108380001Y-105562500D01*
X107830000Y-105562500D01*
X107830000Y-105846222D01*
X107862663Y-106010428D01*
X107862665Y-106010436D01*
X107926740Y-106165127D01*
X107926740Y-106165128D01*
X108019758Y-106304339D01*
X108019764Y-106304347D01*
X108138152Y-106422735D01*
X108138160Y-106422741D01*
X108277372Y-106515759D01*
X108429999Y-106578979D01*
X108430000Y-106578979D01*
X108430000Y-105929497D01*
X108439941Y-105946716D01*
X108495796Y-106002571D01*
X108564205Y-106042067D01*
X108640504Y-106062511D01*
X108719496Y-106062511D01*
X108795795Y-106042067D01*
X108864204Y-106002571D01*
X108920059Y-105946716D01*
X108930000Y-105929497D01*
X108930000Y-106578979D01*
X109082627Y-106515759D01*
X109082628Y-106515759D01*
X109221839Y-106422741D01*
X109221847Y-106422735D01*
X109340235Y-106304347D01*
X109340241Y-106304339D01*
X109433259Y-106165128D01*
X109433259Y-106165127D01*
X109497334Y-106010436D01*
X109497336Y-106010428D01*
X109529999Y-105846222D01*
X109530000Y-105846220D01*
X109530000Y-105562500D01*
X108979999Y-105562500D01*
X108979999Y-105062500D01*
X109448462Y-105062500D01*
X109515501Y-105082185D01*
X109551563Y-105117608D01*
X109584736Y-105167256D01*
X109604725Y-105197171D01*
X109695327Y-105287773D01*
X109695331Y-105287776D01*
X109801866Y-105358961D01*
X109801872Y-105358964D01*
X109801873Y-105358965D01*
X109920256Y-105408001D01*
X109920260Y-105408001D01*
X109920261Y-105408002D01*
X110045928Y-105433000D01*
X110045931Y-105433000D01*
X110174071Y-105433000D01*
X110258615Y-105416182D01*
X110299744Y-105408001D01*
X110418127Y-105358965D01*
X110524669Y-105287776D01*
X110615276Y-105197169D01*
X110686465Y-105090627D01*
X110735501Y-104972244D01*
X110760500Y-104846571D01*
X115239499Y-104846571D01*
X115264497Y-104972238D01*
X115264499Y-104972244D01*
X115313533Y-105090624D01*
X115313538Y-105090633D01*
X115384723Y-105197168D01*
X115384726Y-105197172D01*
X115475327Y-105287773D01*
X115475331Y-105287776D01*
X115581866Y-105358961D01*
X115581872Y-105358964D01*
X115581873Y-105358965D01*
X115700256Y-105408001D01*
X115700260Y-105408001D01*
X115700261Y-105408002D01*
X115825928Y-105433000D01*
X115825931Y-105433000D01*
X115954071Y-105433000D01*
X116038615Y-105416182D01*
X116079744Y-105408001D01*
X116198127Y-105358965D01*
X116304669Y-105287776D01*
X116395276Y-105197169D01*
X116448436Y-105117608D01*
X116502047Y-105072804D01*
X116551538Y-105062500D01*
X117020001Y-105062500D01*
X117020001Y-105562500D01*
X116470000Y-105562500D01*
X116470000Y-105846222D01*
X116502663Y-106010428D01*
X116502665Y-106010436D01*
X116566740Y-106165127D01*
X116566740Y-106165128D01*
X116659758Y-106304339D01*
X116659764Y-106304347D01*
X116778152Y-106422735D01*
X116778160Y-106422741D01*
X116917372Y-106515759D01*
X117069999Y-106578979D01*
X117070000Y-106578979D01*
X117070000Y-105929485D01*
X117079941Y-105946704D01*
X117135796Y-106002559D01*
X117204205Y-106042055D01*
X117280504Y-106062499D01*
X117359496Y-106062499D01*
X117435795Y-106042055D01*
X117504204Y-106002559D01*
X117560059Y-105946704D01*
X117570000Y-105929485D01*
X117570000Y-106578979D01*
X117722627Y-106515759D01*
X117722628Y-106515759D01*
X117861839Y-106422741D01*
X117861847Y-106422735D01*
X117980235Y-106304347D01*
X117980241Y-106304339D01*
X118073259Y-106165128D01*
X118073259Y-106165127D01*
X118137334Y-106010436D01*
X118137336Y-106010428D01*
X118169999Y-105846222D01*
X118170000Y-105846220D01*
X118170000Y-105562500D01*
X117619999Y-105562500D01*
X117619999Y-105062500D01*
X118170000Y-105062500D01*
X118170000Y-104778779D01*
X118169999Y-104778777D01*
X124430000Y-104778777D01*
X124430000Y-105062500D01*
X124980001Y-105062500D01*
X124980001Y-105562500D01*
X124430000Y-105562500D01*
X124430000Y-105846222D01*
X124462663Y-106010428D01*
X124462665Y-106010436D01*
X124526740Y-106165127D01*
X124526740Y-106165128D01*
X124619758Y-106304339D01*
X124619764Y-106304347D01*
X124738152Y-106422735D01*
X124738160Y-106422741D01*
X124877372Y-106515759D01*
X125029999Y-106578979D01*
X125030000Y-106578979D01*
X125030000Y-105929497D01*
X125039941Y-105946716D01*
X125095796Y-106002571D01*
X125164205Y-106042067D01*
X125240504Y-106062511D01*
X125319496Y-106062511D01*
X125395795Y-106042067D01*
X125464204Y-106002571D01*
X125520059Y-105946716D01*
X125530000Y-105929497D01*
X125530000Y-106578979D01*
X125682627Y-106515759D01*
X125682628Y-106515759D01*
X125821839Y-106422741D01*
X125821847Y-106422735D01*
X125940235Y-106304347D01*
X125940241Y-106304339D01*
X126033259Y-106165128D01*
X126033259Y-106165127D01*
X126097334Y-106010436D01*
X126097336Y-106010428D01*
X126129999Y-105846222D01*
X126130000Y-105846220D01*
X126130000Y-105562500D01*
X125579999Y-105562500D01*
X125579999Y-105062500D01*
X126048462Y-105062500D01*
X126115501Y-105082185D01*
X126151563Y-105117608D01*
X126184736Y-105167256D01*
X126204725Y-105197171D01*
X126295327Y-105287773D01*
X126295331Y-105287776D01*
X126401866Y-105358961D01*
X126401872Y-105358964D01*
X126401873Y-105358965D01*
X126520256Y-105408001D01*
X126520260Y-105408001D01*
X126520261Y-105408002D01*
X126645928Y-105433000D01*
X126645931Y-105433000D01*
X126774071Y-105433000D01*
X126858615Y-105416182D01*
X126899744Y-105408001D01*
X127018127Y-105358965D01*
X127124669Y-105287776D01*
X127215276Y-105197169D01*
X127286465Y-105090627D01*
X127335501Y-104972244D01*
X127360500Y-104846571D01*
X131839499Y-104846571D01*
X131864497Y-104972238D01*
X131864499Y-104972244D01*
X131913533Y-105090624D01*
X131913538Y-105090633D01*
X131984723Y-105197168D01*
X131984726Y-105197172D01*
X132075327Y-105287773D01*
X132075331Y-105287776D01*
X132181866Y-105358961D01*
X132181872Y-105358964D01*
X132181873Y-105358965D01*
X132300256Y-105408001D01*
X132300260Y-105408001D01*
X132300261Y-105408002D01*
X132425928Y-105433000D01*
X132425931Y-105433000D01*
X132554071Y-105433000D01*
X132638615Y-105416182D01*
X132679744Y-105408001D01*
X132798127Y-105358965D01*
X132904669Y-105287776D01*
X132995276Y-105197169D01*
X133048436Y-105117608D01*
X133102047Y-105072804D01*
X133151538Y-105062500D01*
X133620001Y-105062500D01*
X133620001Y-105562500D01*
X133070000Y-105562500D01*
X133070000Y-105846222D01*
X133102663Y-106010428D01*
X133102665Y-106010436D01*
X133166740Y-106165127D01*
X133166740Y-106165128D01*
X133259758Y-106304339D01*
X133259764Y-106304347D01*
X133378152Y-106422735D01*
X133378160Y-106422741D01*
X133517372Y-106515759D01*
X133669999Y-106578979D01*
X133670000Y-106578979D01*
X133670000Y-105929485D01*
X133679941Y-105946704D01*
X133735796Y-106002559D01*
X133804205Y-106042055D01*
X133880504Y-106062499D01*
X133959496Y-106062499D01*
X134035795Y-106042055D01*
X134104204Y-106002559D01*
X134160059Y-105946704D01*
X134170000Y-105929485D01*
X134170000Y-106578979D01*
X134322627Y-106515759D01*
X134322628Y-106515759D01*
X134461839Y-106422741D01*
X134461847Y-106422735D01*
X134580235Y-106304347D01*
X134580241Y-106304339D01*
X134673259Y-106165128D01*
X134673259Y-106165127D01*
X134737334Y-106010436D01*
X134737336Y-106010428D01*
X134769999Y-105846222D01*
X134770000Y-105846220D01*
X134770000Y-105562500D01*
X134219999Y-105562500D01*
X134219999Y-105062500D01*
X134770000Y-105062500D01*
X134770000Y-104778779D01*
X134769999Y-104778777D01*
X134737336Y-104614571D01*
X134737334Y-104614563D01*
X134673259Y-104459872D01*
X134673259Y-104459871D01*
X134580241Y-104320660D01*
X134580235Y-104320652D01*
X134461844Y-104202261D01*
X134322632Y-104109243D01*
X134322622Y-104109238D01*
X134170000Y-104046019D01*
X134170000Y-104695514D01*
X134160059Y-104678296D01*
X134104204Y-104622441D01*
X134035795Y-104582945D01*
X133959496Y-104562501D01*
X133880504Y-104562501D01*
X133804205Y-104582945D01*
X133735796Y-104622441D01*
X133679941Y-104678296D01*
X133670000Y-104695514D01*
X133670000Y-104046019D01*
X133517377Y-104109238D01*
X133517367Y-104109243D01*
X133378155Y-104202261D01*
X133259764Y-104320652D01*
X133259761Y-104320656D01*
X133214860Y-104387855D01*
X133161247Y-104432660D01*
X133091922Y-104441367D01*
X133028895Y-104411212D01*
X133008656Y-104387855D01*
X132995276Y-104367831D01*
X132995273Y-104367827D01*
X132904672Y-104277226D01*
X132904668Y-104277223D01*
X132798133Y-104206038D01*
X132798124Y-104206033D01*
X132679744Y-104156999D01*
X132679738Y-104156997D01*
X132554071Y-104132000D01*
X132554069Y-104132000D01*
X132425931Y-104132000D01*
X132425929Y-104132000D01*
X132300261Y-104156997D01*
X132300255Y-104156999D01*
X132181875Y-104206033D01*
X132181866Y-104206038D01*
X132075331Y-104277223D01*
X132075327Y-104277226D01*
X131984726Y-104367827D01*
X131984723Y-104367831D01*
X131913538Y-104474366D01*
X131913533Y-104474375D01*
X131864499Y-104592755D01*
X131864497Y-104592761D01*
X131839500Y-104718428D01*
X131839500Y-104718431D01*
X131839500Y-104846569D01*
X131839500Y-104846571D01*
X131839499Y-104846571D01*
X127360500Y-104846571D01*
X127360500Y-104846569D01*
X127360500Y-104718431D01*
X127360500Y-104718428D01*
X127335502Y-104592761D01*
X127335501Y-104592760D01*
X127335501Y-104592756D01*
X127286465Y-104474373D01*
X127286464Y-104474372D01*
X127286461Y-104474366D01*
X127215276Y-104367831D01*
X127215273Y-104367827D01*
X127124672Y-104277226D01*
X127124668Y-104277223D01*
X127018133Y-104206038D01*
X127018124Y-104206033D01*
X126899744Y-104156999D01*
X126899738Y-104156997D01*
X126774071Y-104132000D01*
X126774069Y-104132000D01*
X126645931Y-104132000D01*
X126645929Y-104132000D01*
X126520261Y-104156997D01*
X126520255Y-104156999D01*
X126401875Y-104206033D01*
X126401866Y-104206038D01*
X126295331Y-104277223D01*
X126295327Y-104277226D01*
X126204726Y-104367827D01*
X126204722Y-104367832D01*
X126191341Y-104387858D01*
X126137728Y-104432661D01*
X126068402Y-104441367D01*
X126005376Y-104411210D01*
X125985139Y-104387854D01*
X125940241Y-104320660D01*
X125940235Y-104320652D01*
X125821844Y-104202261D01*
X125682632Y-104109243D01*
X125682622Y-104109238D01*
X125530000Y-104046019D01*
X125530000Y-104695502D01*
X125520059Y-104678284D01*
X125464204Y-104622429D01*
X125395795Y-104582933D01*
X125319496Y-104562489D01*
X125240504Y-104562489D01*
X125164205Y-104582933D01*
X125095796Y-104622429D01*
X125039941Y-104678284D01*
X125030000Y-104695502D01*
X125030000Y-104046019D01*
X124877377Y-104109238D01*
X124877367Y-104109243D01*
X124738155Y-104202261D01*
X124619764Y-104320652D01*
X124619758Y-104320660D01*
X124526740Y-104459871D01*
X124526740Y-104459872D01*
X124462665Y-104614563D01*
X124462663Y-104614571D01*
X124430000Y-104778777D01*
X118169999Y-104778777D01*
X118137336Y-104614571D01*
X118137334Y-104614563D01*
X118073259Y-104459872D01*
X118073259Y-104459871D01*
X117980241Y-104320660D01*
X117980235Y-104320652D01*
X117861844Y-104202261D01*
X117722632Y-104109243D01*
X117722622Y-104109238D01*
X117570000Y-104046019D01*
X117570000Y-104695514D01*
X117560059Y-104678296D01*
X117504204Y-104622441D01*
X117435795Y-104582945D01*
X117359496Y-104562501D01*
X117280504Y-104562501D01*
X117204205Y-104582945D01*
X117135796Y-104622441D01*
X117079941Y-104678296D01*
X117070000Y-104695514D01*
X117070000Y-104046019D01*
X116917377Y-104109238D01*
X116917367Y-104109243D01*
X116778155Y-104202261D01*
X116659764Y-104320652D01*
X116659761Y-104320656D01*
X116614860Y-104387855D01*
X116561247Y-104432660D01*
X116491922Y-104441367D01*
X116428895Y-104411212D01*
X116408656Y-104387855D01*
X116395276Y-104367831D01*
X116395273Y-104367827D01*
X116304672Y-104277226D01*
X116304668Y-104277223D01*
X116198133Y-104206038D01*
X116198124Y-104206033D01*
X116079744Y-104156999D01*
X116079738Y-104156997D01*
X115954071Y-104132000D01*
X115954069Y-104132000D01*
X115825931Y-104132000D01*
X115825929Y-104132000D01*
X115700261Y-104156997D01*
X115700255Y-104156999D01*
X115581875Y-104206033D01*
X115581866Y-104206038D01*
X115475331Y-104277223D01*
X115475327Y-104277226D01*
X115384726Y-104367827D01*
X115384723Y-104367831D01*
X115313538Y-104474366D01*
X115313533Y-104474375D01*
X115264499Y-104592755D01*
X115264497Y-104592761D01*
X115239500Y-104718428D01*
X115239500Y-104718431D01*
X115239500Y-104846569D01*
X115239500Y-104846571D01*
X115239499Y-104846571D01*
X110760500Y-104846571D01*
X110760500Y-104846569D01*
X110760500Y-104718431D01*
X110760500Y-104718428D01*
X110735502Y-104592761D01*
X110735501Y-104592760D01*
X110735501Y-104592756D01*
X110686465Y-104474373D01*
X110686464Y-104474372D01*
X110686461Y-104474366D01*
X110615276Y-104367831D01*
X110615273Y-104367827D01*
X110524672Y-104277226D01*
X110524668Y-104277223D01*
X110418133Y-104206038D01*
X110418124Y-104206033D01*
X110299744Y-104156999D01*
X110299738Y-104156997D01*
X110174071Y-104132000D01*
X110174069Y-104132000D01*
X110045931Y-104132000D01*
X110045929Y-104132000D01*
X109920261Y-104156997D01*
X109920255Y-104156999D01*
X109801875Y-104206033D01*
X109801866Y-104206038D01*
X109695331Y-104277223D01*
X109695327Y-104277226D01*
X109604726Y-104367827D01*
X109604722Y-104367832D01*
X109591341Y-104387858D01*
X109537728Y-104432661D01*
X109468402Y-104441367D01*
X109405376Y-104411210D01*
X109385139Y-104387854D01*
X109340241Y-104320660D01*
X109340235Y-104320652D01*
X109221844Y-104202261D01*
X109082632Y-104109243D01*
X109082622Y-104109238D01*
X108930000Y-104046019D01*
X108930000Y-104695502D01*
X108920059Y-104678284D01*
X108864204Y-104622429D01*
X108795795Y-104582933D01*
X108719496Y-104562489D01*
X108640504Y-104562489D01*
X108564205Y-104582933D01*
X108495796Y-104622429D01*
X108439941Y-104678284D01*
X108430000Y-104695502D01*
X108430000Y-104046019D01*
X108277377Y-104109238D01*
X108277367Y-104109243D01*
X108138155Y-104202261D01*
X108019764Y-104320652D01*
X108019758Y-104320660D01*
X107926740Y-104459871D01*
X107926740Y-104459872D01*
X107862665Y-104614563D01*
X107862663Y-104614571D01*
X107830000Y-104778777D01*
X106951199Y-104778777D01*
X107012139Y-104511783D01*
X107050500Y-104171312D01*
X107050500Y-103828688D01*
X107028267Y-103631359D01*
X107012141Y-103488231D01*
X107012140Y-103488226D01*
X107012139Y-103488217D01*
X106935897Y-103154183D01*
X106822736Y-102830785D01*
X106812363Y-102809245D01*
X106757006Y-102694293D01*
X106734028Y-102646579D01*
X157950000Y-102646579D01*
X157950000Y-102853420D01*
X157990348Y-103056266D01*
X157990350Y-103056274D01*
X158069500Y-103247359D01*
X158101377Y-103295067D01*
X158101378Y-103295067D01*
X158557852Y-102838593D01*
X158580656Y-102923698D01*
X158639901Y-103026314D01*
X158723686Y-103110099D01*
X158826302Y-103169344D01*
X158911405Y-103192147D01*
X158454931Y-103648620D01*
X158454932Y-103648621D01*
X158502633Y-103680495D01*
X158502639Y-103680498D01*
X158693725Y-103759649D01*
X158693733Y-103759651D01*
X158896579Y-103799999D01*
X158896583Y-103800000D01*
X159103417Y-103800000D01*
X159103420Y-103799999D01*
X159306266Y-103759651D01*
X159306274Y-103759649D01*
X159497366Y-103680495D01*
X159545066Y-103648621D01*
X159545067Y-103648620D01*
X159088594Y-103192147D01*
X159173698Y-103169344D01*
X159276314Y-103110099D01*
X159360099Y-103026314D01*
X159419344Y-102923698D01*
X159442147Y-102838594D01*
X159898620Y-103295067D01*
X159900433Y-103294888D01*
X159950209Y-103253291D01*
X160019535Y-103244584D01*
X160082562Y-103274739D01*
X160102800Y-103298097D01*
X160184019Y-103419650D01*
X160184025Y-103419658D01*
X160330342Y-103565975D01*
X160330345Y-103565977D01*
X160502402Y-103680941D01*
X160693580Y-103760130D01*
X160894016Y-103799999D01*
X160896530Y-103800499D01*
X160896534Y-103800500D01*
X160896535Y-103800500D01*
X161103466Y-103800500D01*
X161103467Y-103800499D01*
X161306420Y-103760130D01*
X161497598Y-103680941D01*
X161669655Y-103565977D01*
X161815977Y-103419655D01*
X161896898Y-103298546D01*
X161950509Y-103253742D01*
X162019834Y-103245035D01*
X162082862Y-103275189D01*
X162103100Y-103298545D01*
X162122465Y-103327526D01*
X162184024Y-103419657D01*
X162330342Y-103565975D01*
X162330345Y-103565977D01*
X162502402Y-103680941D01*
X162693580Y-103760130D01*
X162894016Y-103799999D01*
X162896530Y-103800499D01*
X162896534Y-103800500D01*
X162896535Y-103800500D01*
X163103466Y-103800500D01*
X163103467Y-103800499D01*
X163306420Y-103760130D01*
X163401848Y-103720602D01*
X163425880Y-103710648D01*
X163497596Y-103680942D01*
X163497596Y-103680941D01*
X163497598Y-103680941D01*
X163669655Y-103565977D01*
X163815977Y-103419655D01*
X163930941Y-103247598D01*
X164010130Y-103056420D01*
X164050500Y-102853465D01*
X164050500Y-102646535D01*
X164010130Y-102443580D01*
X163930941Y-102252402D01*
X163815977Y-102080345D01*
X163815975Y-102080342D01*
X163669657Y-101934024D01*
X163545967Y-101851378D01*
X163497598Y-101819059D01*
X163306420Y-101739870D01*
X163306412Y-101739868D01*
X163103469Y-101699500D01*
X163103465Y-101699500D01*
X162896535Y-101699500D01*
X162896530Y-101699500D01*
X162693587Y-101739868D01*
X162693579Y-101739870D01*
X162502403Y-101819058D01*
X162330342Y-101934024D01*
X162184025Y-102080341D01*
X162184019Y-102080349D01*
X162103102Y-102201451D01*
X162049490Y-102246257D01*
X161980165Y-102254964D01*
X161917138Y-102224810D01*
X161896898Y-102201451D01*
X161815980Y-102080349D01*
X161815974Y-102080341D01*
X161669657Y-101934024D01*
X161545967Y-101851378D01*
X161497598Y-101819059D01*
X161306420Y-101739870D01*
X161306412Y-101739868D01*
X161103469Y-101699500D01*
X161103465Y-101699500D01*
X160896535Y-101699500D01*
X160896530Y-101699500D01*
X160693587Y-101739868D01*
X160693579Y-101739870D01*
X160502403Y-101819058D01*
X160330342Y-101934024D01*
X160184025Y-102080341D01*
X160184022Y-102080345D01*
X160102800Y-102201902D01*
X160049187Y-102246707D01*
X159979862Y-102255414D01*
X159916835Y-102225259D01*
X159899276Y-102204996D01*
X159898620Y-102204931D01*
X159442147Y-102661405D01*
X159419344Y-102576302D01*
X159360099Y-102473686D01*
X159276314Y-102389901D01*
X159173698Y-102330656D01*
X159088594Y-102307852D01*
X159545067Y-101851378D01*
X159545067Y-101851377D01*
X159497359Y-101819500D01*
X159306274Y-101740350D01*
X159306266Y-101740348D01*
X159103420Y-101700000D01*
X158896579Y-101700000D01*
X158693733Y-101740348D01*
X158693725Y-101740350D01*
X158502641Y-101819500D01*
X158502631Y-101819505D01*
X158454932Y-101851377D01*
X158454932Y-101851378D01*
X158911406Y-102307852D01*
X158826302Y-102330656D01*
X158723686Y-102389901D01*
X158639901Y-102473686D01*
X158580656Y-102576302D01*
X158557852Y-102661406D01*
X158101378Y-102204932D01*
X158101377Y-102204932D01*
X158069505Y-102252631D01*
X158069500Y-102252641D01*
X157990350Y-102443725D01*
X157990348Y-102443733D01*
X157950000Y-102646579D01*
X106734028Y-102646579D01*
X106674077Y-102522092D01*
X106674076Y-102522090D01*
X106491789Y-102231982D01*
X106278166Y-101964107D01*
X106035893Y-101721834D01*
X105768018Y-101508211D01*
X105477910Y-101325924D01*
X105477907Y-101325922D01*
X105169216Y-101177264D01*
X104845818Y-101064103D01*
X104845816Y-101064102D01*
X104588024Y-101005262D01*
X104511783Y-100987861D01*
X104511780Y-100987860D01*
X104511768Y-100987858D01*
X104171318Y-100949500D01*
X104171312Y-100949500D01*
X103828688Y-100949500D01*
X103828681Y-100949500D01*
X103488231Y-100987858D01*
X103488217Y-100987861D01*
X103154183Y-101064102D01*
X103154181Y-101064103D01*
X102830783Y-101177264D01*
X102522092Y-101325922D01*
X102231983Y-101508210D01*
X101964107Y-101721833D01*
X101721833Y-101964107D01*
X101508210Y-102231983D01*
X101325922Y-102522092D01*
X101177264Y-102830783D01*
X101064103Y-103154181D01*
X101064102Y-103154183D01*
X100987861Y-103488217D01*
X100987858Y-103488231D01*
X100949500Y-103828681D01*
X100308916Y-103828681D01*
X100309386Y-103819124D01*
X100309386Y-103819123D01*
X100318015Y-103643469D01*
X100319208Y-103631359D01*
X100328263Y-103570314D01*
X100370692Y-103284278D01*
X100373061Y-103272367D01*
X100458322Y-102931986D01*
X100461852Y-102920353D01*
X100473781Y-102887016D01*
X100580055Y-102589999D01*
X100584710Y-102578762D01*
X100648577Y-102443725D01*
X100734735Y-102261557D01*
X100740454Y-102250857D01*
X100920851Y-101949884D01*
X100927594Y-101939791D01*
X101136630Y-101657939D01*
X101144333Y-101648554D01*
X101379984Y-101388554D01*
X101388554Y-101379984D01*
X101648554Y-101144333D01*
X101657939Y-101136630D01*
X101939791Y-100927594D01*
X101949884Y-100920851D01*
X102250857Y-100740454D01*
X102261557Y-100734735D01*
X102578762Y-100584710D01*
X102589999Y-100580055D01*
X102920361Y-100461849D01*
X102931986Y-100458322D01*
X103272367Y-100373061D01*
X103284278Y-100370692D01*
X103631359Y-100319207D01*
X103643465Y-100318015D01*
X103996967Y-100300648D01*
X104003051Y-100300500D01*
X104047595Y-100300500D01*
X107728203Y-100300500D01*
X107795242Y-100320185D01*
G37*
%TD.AperFunction*%
%TD*%
M02*
