M48
; DRILL file KiCad 10.0.5-10.0.5~ubuntu26.04.1 date 2026-08-20T20:57:50
; FORMAT={-:-/ absolute / inch / decimal}
; #@! TF.CreationDate,2026-08-20T20:57:50-07:00
; #@! TF.GenerationSoftware,Kicad,Pcbnew,10.0.5-10.0.5~ubuntu26.04.1
; #@! TF.FileFunction,Plated,1,2,PTH
FMAT,2
INCH
; #@! TA.AperFunction,Plated,PTH,ComponentDrill
T1C0.0118
; #@! TA.AperFunction,Plated,PTH,ViaDrill
T2C0.0157
; #@! TA.AperFunction,Plated,PTH,ComponentDrill
T3C0.0236
; #@! TA.AperFunction,Plated,PTH,ComponentDrill
T4C0.0276
; #@! TA.AperFunction,Plated,PTH,ComponentDrill
T5C0.0354
; #@! TA.AperFunction,Plated,PTH,ComponentDrill
T6C0.0362
; #@! TA.AperFunction,Plated,PTH,ComponentDrill
T7C0.0906
; #@! TA.AperFunction,Plated,PTH,ComponentDrill
T8C0.1260
%
G90
G05
T1
X5.4783Y-4.3155
X5.4783Y-4.3627
X5.5256Y-4.3155
X5.5256Y-4.3627
T2
X4.0984Y-4.3209
X4.0984Y-4.3583
X4.0984Y-4.3898
X4.1929Y-4.3583
X4.1929Y-4.3976
X4.1929Y-4.685
X4.1929Y-4.8622
X4.2913Y-4.3937
X4.3228Y-4.2126
X4.3307Y-4.6614
X4.3307Y-4.8327
X4.3543Y-4.2402
X4.378Y-4.3898
X4.4331Y-4.2244
X4.4685Y-4.3898
X4.4685Y-4.5276
X4.5433Y-4.2362
X4.5748Y-4.2126
X4.5984Y-4.3701
X4.685Y-4.3701
X4.7441Y-4.1142
X4.7677Y-4.3701
X4.8031Y-4.1142
X4.8425Y-4.5276
X4.9764Y-4.2126
X4.9803Y-4.685
X4.9803Y-4.8622
X5.0Y-4.4291
X5.0787Y-4.311
X5.1181Y-4.6614
X5.1181Y-4.8327
X5.1378Y-4.4291
X5.2283Y-4.2126
X5.4016Y-4.3307
X5.4134Y-4.4291
X5.4173Y-4.0709
X5.4272Y-4.2303
X5.5118Y-4.5276
X5.5866Y-4.0709
X5.5906Y-4.252
X5.5906Y-4.4291
X5.685Y-4.1181
X5.7677Y-4.685
X5.7677Y-4.8622
X5.8268Y-4.315
X5.8583Y-4.2953
X5.8583Y-4.374
X5.9055Y-4.6614
X5.9055Y-4.8327
X6.0866Y-4.2244
X6.1654Y-4.8583
X6.2283Y-4.5709
X6.4577Y-4.8986
X6.4803Y-4.3504
X6.6142Y-4.6909
X6.6142Y-4.8602
X6.6614Y-4.4016
X6.747Y-4.8986
X6.752Y-4.8425
T4
X4.335Y-4.1253
X4.5626Y-4.1253
X4.9886Y-4.1253
X5.2161Y-4.1253
X6.4807Y-5.1063
X6.7083Y-5.1063
T5
X6.2598Y-4.0453
X6.2598Y-4.2224
X6.3386Y-4.0453
X6.3386Y-4.2224
X6.4173Y-4.0453
X6.4173Y-4.2224
T6
X4.1929Y-4.9232
X4.2913Y-4.9232
X4.3701Y-4.9232
X4.4685Y-4.9232
X4.9803Y-4.9232
X5.0787Y-4.9232
X5.1575Y-4.9232
X5.2559Y-4.9232
X5.7677Y-4.9232
X5.8661Y-4.9232
X5.9449Y-4.9232
X6.0433Y-4.9232
T7
X4.072Y-5.0295
X4.5894Y-5.0295
X4.8594Y-5.0295
X5.3768Y-5.0295
X5.6469Y-5.0295
X6.1642Y-5.0295
T8
X4.0945Y-4.0945
X4.685Y-4.685
X6.1417Y-4.685
X6.7323Y-4.0945
T3
G00X4.2787Y-3.9922
M15
G01X4.2787Y-3.9686
M16
G05
G00X4.2787Y-4.1639
M15
G01X4.2787Y-4.1284
M16
G05
G00X4.6189Y-3.9922
M15
G01X4.6189Y-3.9686
M16
G05
G00X4.6189Y-4.1639
M15
G01X4.6189Y-4.1284
M16
G05
G00X4.9323Y-3.9922
M15
G01X4.9323Y-3.9686
M16
G05
G00X4.9323Y-4.1639
M15
G01X4.9323Y-4.1284
M16
G05
G00X5.2724Y-3.9922
M15
G01X5.2724Y-3.9686
M16
G05
G00X5.2724Y-4.1639
M15
G01X5.2724Y-4.1284
M16
G05
G00X6.4244Y-5.0677
M15
G01X6.4244Y-5.1031
M16
G05
G00X6.4244Y-5.2394
M15
G01X6.4244Y-5.263
M16
G05
G00X6.7646Y-5.0677
M15
G01X6.7646Y-5.1032
M16
G05
G00X6.7646Y-5.2394
M15
G01X6.7646Y-5.263
M16
G05
M30
